<svg width="62" height="62" viewBox="0 0 62 62" fill="none" xmlns="http://www.w3.org/2000/svg">
<path d="M47.5651 16.1001C44.5258 14.6005 41.2773 13.471 37.843 12.787C37.3998 13.5265 36.875 14.539 36.53 15.3558C32.8945 14.717 29.2705 14.6286 25.6832 15.0913C25.3534 14.258 24.8786 13.2211 24.472 12.461C21.0084 12.9767 17.7088 13.9465 14.5999 15.2961C8.17383 24.4922 6.27686 33.5737 6.88281 42.5662C10.9316 45.7408 14.8603 47.6872 18.7543 49.0075C19.7613 47.7067 20.6458 46.3028 21.4315 44.8466C20.0198 44.287 18.6866 43.5793 17.4309 42.7734C17.7869 42.532 18.1185 42.265 18.4495 42.023C26.1832 45.8627 34.6556 46.0693 42.4673 42.6087C42.7855 42.8916 43.1043 43.1494 43.4481 43.4079C42.1546 44.1516 40.7642 44.7678 39.3512 45.2835C40.065 46.7764 40.88 48.2217 41.8224 49.5701C45.7761 48.4411 49.82 46.6892 53.9938 43.7151C55.2226 33.3169 52.7935 24.2299 47.6151 16.1013L47.5651 16.1001ZM22.6622 37.4494C20.3129 37.3921 18.4415 35.1708 18.5068 32.4966C18.572 29.8224 20.4994 27.6937 22.8987 27.7522C25.298 27.8108 27.1444 30.0314 27.0542 32.705C26.9896 35.3542 25.0615 37.5079 22.6622 37.4494ZM38.4325 37.8339C36.0832 37.7767 34.2118 35.5554 34.277 32.8812C34.3423 30.207 36.2697 28.0783 38.669 28.1368C41.0683 28.1953 42.9147 30.416 42.8245 33.0896C42.7599 35.7388 40.8318 37.8925 38.4325 37.8339Z" fill="black"/>
</svg>
