<svg width="57" height="55" viewBox="0 0 57 55" fill="none" xmlns="http://www.w3.org/2000/svg">
<path fill-rule="evenodd" clip-rule="evenodd" d="M28.7668 1.30323C22.383 1.29995 16.2065 3.5692 11.3433 7.70464C6.48006 11.8401 3.24772 17.5716 2.22507 23.873C1.20242 30.1743 2.45623 36.6339 5.76201 42.0951C9.06778 47.5563 14.2096 51.6624 20.2668 53.6782C21.6168 53.9282 22.1043 53.1032 22.1043 52.4282C22.1043 51.7532 22.1043 50.1032 22.1043 47.8657C14.6043 49.4907 13.0543 44.2657 13.0543 44.2657C12.5582 42.6125 11.4789 41.1956 10.0168 40.2782C7.5793 38.6157 10.2043 38.6407 10.2043 38.6407C11.0557 38.7599 11.8688 39.0718 12.5814 39.5527C13.2941 40.0336 13.8876 40.6708 14.3168 41.4157C16.7168 45.5282 20.5668 44.3407 22.1418 43.6532C22.2661 42.2877 22.8733 41.0113 23.8543 40.0532C17.8793 39.3782 11.6043 37.0782 11.6043 26.7782C11.5647 24.1062 12.5589 21.5221 14.3793 19.5657C13.5522 17.2488 13.6462 14.7028 14.6418 12.4532C14.6418 12.4532 16.8918 11.7282 22.0293 15.2032C26.4323 14.0032 31.0763 14.0032 35.4793 15.2032C40.6168 11.7282 42.8668 12.4532 42.8668 12.4532C43.8548 14.7046 43.9487 17.2477 43.1293 19.5657C44.9463 21.5234 45.9361 24.1077 45.8918 26.7782C45.8918 37.1032 39.6418 39.3657 33.6293 40.0407C34.2744 40.6944 34.7713 41.4793 35.0862 42.342C35.4011 43.2047 35.5267 44.1252 35.4543 45.0407C35.4543 48.6282 35.4543 51.5282 35.4543 52.4157C35.4543 53.3032 35.9418 53.9657 37.3043 53.6657C43.3553 51.6421 48.4889 47.5317 51.7869 42.0698C55.0849 36.6078 56.3321 30.1507 55.3054 23.8535C54.2786 17.5562 51.045 11.8297 46.1828 7.69823C41.3206 3.56677 35.1472 1.29994 28.7668 1.30323Z" stroke="black" stroke-width="2.5" stroke-linecap="round" stroke-linejoin="round"/>
</svg>
