<svg width="32" height="46" viewBox="0 0 32 46" fill="none" xmlns="http://www.w3.org/2000/svg">
<path d="M15.6669 0.211426C7.09213 0.211426 0.140991 6.86686 0.140991 15.0766C0.140991 18.1461 1.11285 20.9984 2.77786 23.3666C5.89234 27.7963 7.57011 33.0222 7.57011 38.3619V38.3652C7.57011 39.7194 8.71675 40.8172 10.1312 40.8172H11.0774C11.0774 43.2441 13.1322 45.2114 15.6669 45.2114C18.2016 45.2114 20.2563 43.2441 20.2563 40.8172H21.2026C22.617 40.8172 23.7637 39.7194 23.7637 38.3652V38.3619C23.7637 32.9969 25.4267 27.8171 28.556 23.3666C30.2211 20.9984 31.1928 18.1462 31.1928 15.0766C31.1928 6.86686 24.2415 0.211426 15.6669 0.211426ZM21.2547 18.077L13.5777 28.1273C13.403 28.356 13.0855 28.4373 12.8149 28.3226C12.5443 28.208 12.3937 27.9283 12.453 27.6508L14.049 20.1796H10.1121C9.73193 20.1796 9.38411 19.975 9.21208 19.6505C9.04006 19.3261 9.07301 18.9364 9.29745 18.6427L16.9745 8.59241C17.1492 8.36372 17.4667 8.28242 17.7373 8.39712C18.0079 8.51173 18.1585 8.7914 18.0992 9.06896L16.5031 16.5402H20.4401C20.8203 16.5402 21.1681 16.7447 21.3401 17.0692C21.5121 17.3937 21.4793 17.7833 21.2547 18.077Z" fill="white"/>
</svg>
