<svg width="47" height="43" viewBox="0 0 47 43" fill="none" xmlns="http://www.w3.org/2000/svg">
<path d="M11.8025 33.3653C13.197 33.3653 14.3316 32.2791 14.3316 30.9439C14.3316 30.6224 14.2643 30.3157 14.1451 30.0347L19.47 24.8231C19.7855 24.9588 20.134 25.0361 20.5018 25.0361C20.8594 25.0361 21.1993 24.9638 21.5081 24.835L24.1068 27.3236C24.0067 27.5838 23.9492 27.8637 23.9492 28.1569C23.9492 29.492 25.0837 30.5783 26.4783 30.5783C27.8729 30.5783 29.0073 29.4921 29.0073 28.1569C29.0073 27.8135 28.9313 27.4871 28.796 27.1909L34.2363 21.9821L35.0296 22.7415C35.2221 22.9259 35.4804 23.0248 35.7441 23.0248C35.8534 23.0248 35.9637 23.0078 36.0706 22.9729C36.4353 22.8537 36.6974 22.5462 36.7464 22.1802L37.1726 18.9902C37.2123 18.6931 37.1061 18.3951 36.8849 18.1832C36.6638 17.9716 36.3534 17.8696 36.0421 17.9078L32.7103 18.3158C32.328 18.3626 32.0068 18.6135 31.8824 18.9629C31.7578 19.312 31.8515 19.6986 32.1242 19.9596L32.8073 20.6136L27.3134 25.8739C27.0515 25.7857 26.7712 25.7354 26.4783 25.7354C26.1324 25.7354 25.8028 25.8024 25.5024 25.9232L22.8851 23.4169C22.9777 23.1654 23.0307 22.8962 23.0307 22.6146C23.0307 21.2795 21.8962 20.1932 20.5016 20.1932C19.1071 20.1932 17.9724 21.2794 17.9724 22.6146C17.9724 22.8858 18.0212 23.1458 18.1076 23.3893L12.6994 28.6826C12.4201 28.5807 12.1187 28.5224 11.8024 28.5224C10.4078 28.5224 9.27319 29.6086 9.27319 30.9439C9.27334 32.2791 10.4079 33.3653 11.8025 33.3653ZM27.5638 28.1569C27.5638 28.7299 27.0768 29.1962 26.4783 29.1962C25.8798 29.1962 25.3927 28.73 25.3927 28.1569C25.3927 27.5837 25.8796 27.1175 26.4783 27.1175C27.0768 27.1174 27.5638 27.5837 27.5638 28.1569ZM20.5016 21.5754C21.1001 21.5754 21.5872 22.0416 21.5872 22.6148C21.5872 23.1878 21.1003 23.6541 20.5016 23.6541C19.903 23.6541 19.416 23.1878 19.416 22.6148C19.4161 22.0416 19.9032 21.5754 20.5016 21.5754ZM11.8025 29.9045C12.401 29.9045 12.8881 30.3708 12.8881 30.9439C12.8881 31.5169 12.4012 31.9832 11.8025 31.9832C11.2039 31.9832 10.7169 31.517 10.7169 30.9439C10.7169 30.3707 11.2039 29.9045 11.8025 29.9045Z" fill="white"/>
<path d="M44.4738 0.169434H2.52617C1.13331 0.169434 0 1.25452 0 2.5881V40.4114C0 41.745 1.13331 42.8301 2.52617 42.8301H44.4738C45.8667 42.8301 47 41.745 47 40.4114V2.5881C47 1.25438 45.8667 0.169434 44.4738 0.169434ZM39.4755 3.87802C40.6294 3.87802 41.5686 4.77707 41.5686 5.88206C41.5686 6.98705 40.6294 7.8861 39.4755 7.8861C38.3212 7.8861 37.3824 6.98705 37.3824 5.88206C37.3824 4.77707 38.3212 3.87802 39.4755 3.87802ZM32.3774 3.87802C33.5315 3.87802 34.4705 4.77707 34.4705 5.88206C34.4705 6.98705 33.5315 7.8861 32.3774 7.8861C31.2233 7.8861 30.2843 6.98705 30.2843 5.88206C30.2843 4.77707 31.2233 3.87802 32.3774 3.87802ZM6.4091 4.84549H14.8537C15.4518 4.84549 15.9364 5.30946 15.9364 5.88206C15.9364 6.45466 15.4518 6.91863 14.8537 6.91863H6.4091C5.81105 6.91863 5.32646 6.45466 5.32646 5.88206C5.32646 5.30946 5.8112 4.84549 6.4091 4.84549ZM42.9876 38.6392C42.9876 38.813 42.8398 38.9547 42.658 38.9547H4.34198C4.16024 38.9547 4.01242 38.813 4.01242 38.6392V12.5908H42.9876V38.6392Z" fill="white"/>
</svg>
