<svg width="477" height="388" viewBox="0 0 477 388" fill="none" xmlns="http://www.w3.org/2000/svg">
<g clip-path="url(#clip0_92_2)">
<path d="M313.735 217.234C303.676 223.313 285.756 230.931 267.443 223.102L255.605 218.042L279.327 191.243C260.397 170.208 249.924 142.819 249.953 114.421C249.982 86.024 260.51 58.6566 279.483 37.6609C298.456 16.6652 324.511 3.5483 352.564 0.870382C380.616 -1.80753 408.652 6.14577 431.199 23.1779C453.746 40.21 469.186 65.0985 474.505 92.9854C479.824 120.872 474.641 149.756 459.966 173.999C445.292 198.241 422.18 216.103 395.142 224.097C368.103 232.091 339.079 229.645 313.735 217.234ZM268.283 114.357C268.23 127.448 270.867 140.408 276.025 152.422C281.184 164.436 288.754 175.244 298.259 184.167L304.802 190.364L289.875 207.227C297.65 205.637 304.422 201.398 307.856 198.936L312.568 195.557L317.636 198.364C331.644 206.093 347.357 210.143 363.327 210.142C415.734 210.142 458.371 167.173 458.371 114.357C458.371 61.5418 415.734 18.573 363.327 18.573C310.92 18.573 268.283 61.5418 268.283 114.357Z" fill="#FF6554"/>
<path d="M259.068 114.358C259.068 56.3285 305.746 9.28662 363.327 9.28662C420.908 9.28662 467.586 56.3285 467.586 114.358C467.586 172.387 420.908 219.428 363.327 219.428C345.803 219.454 328.557 215.008 313.198 206.503C305.991 211.671 288.41 221.979 271.041 214.554L291.948 190.935C281.555 181.121 273.274 169.26 267.618 156.087C261.962 142.914 259.052 128.711 259.068 114.358Z" fill="white"/>
<path opacity="0.1" d="M449.825 114.585C449.825 59.6862 408.044 14.6293 354.781 9.92731C357.818 9.65922 360.89 9.51416 363.996 9.51416C421.576 9.51416 468.255 56.556 468.255 114.585C468.255 172.614 421.576 219.656 363.996 219.656C360.894 219.656 357.828 219.509 354.795 219.242C408.052 214.533 449.825 169.479 449.825 114.585Z" fill="black"/>
<path d="M123.074 363.2C97.0225 363.213 71.7588 354.201 51.5163 337.675C31.2739 321.149 17.2828 298.113 11.8879 272.428C6.49304 246.744 10.0222 219.97 21.8838 196.596C33.7455 173.221 53.2189 154.666 77.0405 144.039C100.862 133.412 127.584 131.36 152.729 138.226C177.873 145.092 199.912 160.46 215.151 181.753C230.39 203.046 237.904 228.971 236.434 255.183C234.963 281.395 224.597 306.302 207.073 325.728L230.796 352.527L218.958 357.588C200.645 365.416 182.724 357.799 172.666 351.719C157.208 359.272 140.253 363.197 123.074 363.2ZM123.074 153.058C70.6661 153.058 28.0293 196.027 28.0293 248.843C28.0293 301.658 70.6661 344.627 123.074 344.627C139.044 344.629 154.757 340.578 168.765 332.849L173.832 330.043L178.544 333.421C181.978 335.884 188.75 340.123 196.526 341.713L181.598 324.849L188.142 318.652C197.647 309.729 205.216 298.921 210.375 286.907C215.534 274.893 218.17 261.933 218.118 248.843C218.118 196.027 175.481 153.058 123.074 153.058Z" fill="#FF6554"/>
<path d="M227.332 248.842C227.332 190.813 180.654 143.771 123.073 143.771C65.4923 143.771 18.814 190.813 18.814 248.842C18.814 306.871 65.4923 353.913 123.073 353.913C140.597 353.939 157.843 349.493 173.202 340.988C180.409 346.156 197.99 356.463 215.359 349.039L194.452 325.42C204.845 315.606 213.126 303.745 218.782 290.572C224.438 277.399 227.348 263.196 227.332 248.842Z" fill="white"/>
<path opacity="0.1" d="M37.2436 248.312C37.2436 193.413 79.0243 148.356 132.288 143.654C129.251 143.386 126.179 143.241 123.073 143.241C65.4923 143.241 18.814 190.283 18.814 248.312C18.814 306.341 65.4923 353.383 123.073 353.383C126.174 353.383 129.241 353.236 132.273 352.968C79.0167 348.259 37.2436 303.205 37.2436 248.312Z" fill="black"/>
<path d="M387.803 80.9765C380.981 69.3606 367.485 68.8192 367.485 68.8192C367.485 68.8192 354.334 67.1244 345.898 84.8157C338.035 101.305 327.183 117.227 344.151 121.087L347.216 111.473L349.114 121.802C351.53 121.978 353.954 122.019 356.374 121.927C374.546 121.336 391.852 122.1 391.295 115.529C390.554 106.793 394.366 92.1534 387.803 80.9765Z" fill="#121212"/>
<path d="M343.183 182.703C342.982 183.981 342.691 185.242 342.312 186.478C341.886 187.688 341.227 188.807 340.836 190.029C339.592 193.924 341.317 198.268 344.071 201.275C346.46 203.872 349.544 205.717 352.95 206.588C355.457 207.129 358.015 207.399 360.579 207.396C367.671 207.638 374.944 207.855 381.664 205.558C383.787 204.815 385.837 203.876 387.79 202.754C388.406 202.458 388.949 202.027 389.379 201.493C389.829 200.71 390.029 199.806 389.953 198.905C389.938 195.875 389.328 192.861 389.473 189.835C389.553 188.159 389.864 186.484 389.711 184.813C389.499 182.915 388.71 181.13 387.452 179.701C386.195 178.273 384.53 177.271 382.685 176.833C380.779 176.42 378.802 176.645 376.861 176.833C371.824 177.321 366.765 177.549 361.705 177.516C356.534 177.483 351.395 176.687 346.251 176.604C344.729 176.58 344.76 177.052 344.275 178.536C343.829 179.902 343.464 181.293 343.183 182.703Z" fill="#121212"/>
<path d="M357.856 107.895C357.608 109.206 357.339 110.565 356.557 111.643C355.658 112.882 354.191 113.591 353.223 114.777C351.767 116.563 351.683 119.076 351.677 121.388C351.672 123.517 351.714 125.789 352.893 127.556C353.732 128.655 354.773 129.579 355.959 130.28C360.378 133.282 365.153 136.337 370.482 136.436C372.689 136.477 375.056 135.902 376.509 134.227C377.136 133.439 377.629 132.553 377.968 131.603C379.331 128.218 380.156 124.639 380.416 120.996C380.612 119.283 380.453 117.548 379.95 115.9C379.302 114.082 377.994 112.585 377.129 110.861C376.106 108.81 375.732 106.493 376.057 104.222C376.1 104.062 376.087 103.892 376.02 103.741C375.948 103.66 375.86 103.597 375.76 103.556C375.661 103.515 375.553 103.498 375.446 103.507L364.882 102.74C363.898 102.691 362.918 102.578 361.948 102.402C361.379 102.285 359.874 101.47 359.331 101.687C358.326 102.088 358.062 106.808 357.856 107.895Z" fill="#A0616A"/>
<path opacity="0.1" d="M357.856 108.227C357.608 109.539 357.339 110.898 356.557 111.975C355.658 113.215 354.191 113.923 353.223 115.11C351.767 116.896 351.683 119.408 351.677 121.72C351.672 123.85 351.714 126.121 352.893 127.889C353.732 128.987 354.773 129.912 355.959 130.613C360.378 133.614 365.153 136.669 370.482 136.768C372.689 136.809 375.056 136.235 376.509 134.559C377.136 133.772 377.629 132.885 377.968 131.935C379.331 128.551 380.156 124.971 380.416 121.328C380.612 119.616 380.453 117.881 379.95 116.233C379.302 114.414 377.994 112.918 377.129 111.193C376.106 109.143 375.732 106.826 376.057 104.554C376.1 104.394 376.087 104.224 376.02 104.073C375.948 103.992 375.86 103.929 375.76 103.888C375.661 103.848 375.553 103.831 375.446 103.839L364.882 103.073C363.898 103.023 362.918 102.91 361.948 102.735C361.379 102.618 359.874 101.803 359.331 102.019C358.326 102.421 358.062 107.14 357.856 108.227Z" fill="black"/>
<path d="M367.959 109.323C376.52 109.323 383.459 102.329 383.459 93.7022C383.459 85.0752 376.52 78.0815 367.959 78.0815C359.399 78.0815 352.459 85.0752 352.459 93.7022C352.459 102.329 359.399 109.323 367.959 109.323Z" fill="#A0616A"/>
<path d="M360.03 128.689C360.796 129.582 361.719 130.326 362.752 130.881C363.83 131.33 364.988 131.552 366.154 131.534C368.948 131.613 371.977 131.097 373.92 129.073C376.426 126.463 376.343 122.254 378.307 119.21C378.465 118.934 378.681 118.696 378.94 118.512C379.269 118.332 379.641 118.245 380.016 118.263C382.496 118.24 384.657 119.861 386.607 121.406C387.525 122.042 388.312 122.851 388.927 123.787C389.312 124.545 389.576 125.36 389.709 126.202C390.677 130.962 390.99 135.829 391.301 140.678C391.473 143.357 391.645 146.038 391.632 148.722C391.59 157.564 389.551 166.259 387.523 174.862C387.261 175.97 386.904 177.209 385.903 177.74C385.457 177.942 384.979 178.06 384.49 178.088C378.682 178.775 372.861 179.464 367.013 179.554C364.731 179.59 362.45 179.534 360.17 179.387C359.777 179.382 359.388 179.314 359.017 179.185C358.513 178.941 358.08 178.571 357.76 178.109C354.597 174.092 354.41 168.539 354.43 163.41C354.48 150.872 354.924 138.344 355.764 125.826C355.833 124.793 355.848 123.538 355.11 122.725C356.548 124.873 358.196 126.871 360.03 128.689Z" fill="black"/>
<path d="M356.747 110.652C356.223 111.607 352.364 113.978 351.619 114.77C347.456 119.192 339.857 119.026 336.05 123.763C334.71 125.43 334.014 127.524 333.502 129.605C332.778 132.55 332.392 135.761 333.605 138.537C334.771 141.208 337.228 143.055 338.896 145.441C340.727 148.061 341.551 151.243 342.34 154.347C342.922 156.639 343.51 158.988 343.283 161.344C343.025 164.022 341.739 166.473 340.98 169.053C340.221 171.632 340.09 174.704 341.845 176.731C343.135 178.22 345.157 178.811 347.091 179.143C349.567 179.518 352.064 179.737 354.568 179.799C356.778 179.897 359.214 179.916 360.913 178.489C362.254 177.362 362.836 175.534 362.912 173.776C362.987 172.018 362.624 170.276 362.397 168.532C362.161 166.724 362.071 164.9 361.995 163.078C361.655 154.903 361.609 146.722 361.856 138.536C361.98 136.834 361.898 135.124 361.609 133.443C361.135 131.253 359.961 129.296 358.981 127.284C357.023 123.495 356.136 119.236 356.417 114.973C356.714 110.591 358.61 107.253 356.747 110.652Z" fill="black"/>
<path d="M378.513 110.984C379.31 111.81 382.02 112.082 383.034 112.614C383.988 113.059 384.984 113.406 386.006 113.651C389.706 114.727 393.226 116.355 396.447 118.481C397.117 118.875 397.708 119.391 398.193 120.001C398.704 120.838 399.033 121.775 399.159 122.749C399.656 125.229 400.155 127.738 400.043 130.265C399.925 132.947 399.123 135.545 398.328 138.108L395.356 147.682C393.138 154.829 390.905 162.047 390.281 169.509C389.936 173.644 390.089 177.807 390.738 181.905C390.799 182.105 390.818 182.315 390.792 182.522C390.766 182.729 390.697 182.928 390.589 183.106C390.393 183.301 390.135 183.421 389.861 183.444C388.426 183.67 387.038 182.933 385.739 182.28C381.767 180.288 377.528 178.891 373.156 178.131C374.864 175.643 376.182 172.904 377.064 170.012C377.565 168.175 377.959 166.31 378.245 164.428L379.627 156.37C380.19 153.424 380.586 150.449 380.813 147.459C380.918 146.337 380.853 145.205 380.621 144.102C380.302 143.053 379.879 142.039 379.358 141.075C377.08 136.299 376.011 130.849 376.907 125.627C377.3 123.341 378.062 121.053 377.744 118.756C377.438 116.548 377.756 114.832 377.194 112.646C374.885 103.672 377.013 109.43 378.513 110.984Z" fill="black"/>
<path d="M336.01 131.315C334.972 133.487 333.235 135.337 332.644 137.674C332.414 138.766 332.316 139.882 332.351 140.997C332.248 142.679 332.413 144.366 332.84 145.995C333.17 147.026 333.707 147.976 334.093 148.986C334.632 150.397 334.872 151.906 334.798 153.417C334.694 155.509 333.988 157.54 333.933 159.634C333.847 162.928 335.358 166.024 336.833 168.964C337.204 168.038 337.772 167.204 338.496 166.522C339.22 165.839 340.084 165.325 341.026 165.014C341.968 164.703 342.966 164.603 343.951 164.722C344.935 164.84 345.882 165.174 346.725 165.7C347.063 165.282 347.223 164.746 347.171 164.21C347.28 160.389 347.385 156.568 347.487 152.747C347.646 146.837 347.798 140.849 346.449 135.096C345.84 132.498 344.893 129.91 343.155 127.896C342.241 126.835 339.135 124.04 337.634 125.229C336.958 125.763 337.116 127.218 337.009 127.955C336.848 129.119 336.511 130.252 336.01 131.315Z" fill="black"/>
<path d="M400.347 125.055C400.765 126.621 400.944 128.243 400.877 129.863C400.897 133.166 400.854 136.469 400.747 139.771C400.763 141.465 400.548 143.152 400.108 144.787C399.773 145.85 399.255 146.847 398.909 147.906C397.871 151.081 398.438 154.525 398.527 157.867C398.59 158.948 398.498 160.033 398.255 161.089C397.707 163.16 396.235 164.834 395.207 166.711C394.231 168.494 393.642 170.492 392.477 172.156C391.311 173.819 389.293 175.136 387.337 174.626C385.855 174.239 384.802 172.917 384.074 171.56C382.484 168.577 381.941 165.14 382.531 161.806C383.262 157.75 385.626 154.152 386.479 150.12C387.65 144.584 385.87 138.871 385.923 133.21C385.899 132.323 386.019 131.437 386.277 130.589C386.724 129.296 387.684 128.263 388.572 127.226C389.681 125.93 390.711 124.568 391.656 123.147C392.291 122.192 393.154 119.736 394.28 119.532C396.795 119.076 399.723 123.097 400.347 125.055Z" fill="black"/>
<path d="M322.964 180.241C321.573 179.889 320.141 179.735 318.708 179.785C317.203 179.869 315.732 180.275 314.394 180.976C313.057 181.677 311.882 182.656 310.949 183.85C310.017 185.044 309.347 186.424 308.984 187.899C308.621 189.374 308.575 190.91 308.847 192.404C309.194 194.023 309.761 195.586 310.533 197.048C311.662 199.356 313.015 201.659 315.105 203.139C316.364 203.952 317.719 204.602 319.139 205.074L330.144 209.252C331.763 209.867 333.382 210.481 335.017 211.051C343.231 213.912 351.794 215.628 360.469 216.151C363.109 216.4 365.77 216.264 368.371 215.747C369 215.664 369.577 215.35 369.99 214.866C370.2 214.497 370.323 214.086 370.352 213.662L371.029 208.885C371.18 208.219 371.16 207.526 370.971 206.871C370.661 206.068 369.883 205.563 369.142 205.134C361.907 200.946 353.46 198.636 347.37 192.888C345.937 191.535 344.737 189.39 342.995 188.471C341.02 187.429 338.694 186.834 336.652 185.874C332.189 183.774 327.801 181.362 322.964 180.241Z" fill="#121212"/>
<path opacity="0.1" d="M333.95 186.682C337.84 187.91 354.262 196.42 357.077 199.391C356.699 199.528 343.898 192.298 343.514 192.182C339.993 191.207 336.545 189.983 333.195 188.517C332.528 188.206 328.862 186.745 329.028 185.897C329.215 184.94 333.26 186.464 333.95 186.682Z" fill="black"/>
<path d="M382.476 218.628C382.697 218.645 382.916 218.58 383.093 218.445C383.17 218.345 383.227 218.23 383.26 218.107C383.293 217.985 383.302 217.856 383.285 217.73L383.267 211.222C381.41 210.33 379.333 210.044 377.294 209.769L367.78 208.488C367.998 208.517 366.292 212.617 366.554 213.165C367.015 214.13 370.538 214.985 371.533 215.44C374.99 217.024 378.582 218.765 382.476 218.628Z" fill="#A0616A"/>
<path d="M352.626 211.199C350.83 211.487 348.825 211.742 347.662 213.152C346.187 214.939 346.815 217.603 347.518 219.816C347.561 220.102 347.661 220.376 347.81 220.623C347.96 220.869 348.158 221.083 348.391 221.251C348.624 221.419 348.889 221.538 349.168 221.601C349.448 221.665 349.738 221.671 350.02 221.62C351.658 221.724 353.401 221.806 354.833 220.996C355.481 220.564 356.105 220.097 356.702 219.596C357.758 218.888 358.918 218.353 360.14 218.012C362.386 217.3 364.698 216.82 367.04 216.579C367.963 216.536 368.877 216.374 369.758 216.096C370.199 215.953 370.6 215.709 370.932 215.385C371.264 215.06 371.518 214.662 371.673 214.223C372.004 213.04 371.322 211.834 370.668 210.797C369.914 209.438 368.935 208.219 367.774 207.193C366.002 205.805 365.125 206.87 363.339 207.758C359.959 209.44 356.348 210.599 352.626 211.199Z" fill="#A0616A"/>
<path d="M347.932 212.83L336.526 209.432C335.158 208.952 333.728 208.673 332.281 208.603C331.557 208.573 330.834 208.7 330.162 208.974C329.49 209.248 328.884 209.663 328.383 210.192C327.499 211.238 327.246 212.668 327.025 214.024L326.554 216.926C326.239 218.388 326.15 219.891 326.29 221.381C326.365 222.126 326.609 222.844 327.002 223.48C327.394 224.116 327.926 224.653 328.555 225.051C330.134 225.919 332.068 225.495 333.83 225.132C337.388 224.399 341.007 224.008 344.639 223.964C346.004 223.948 347.436 223.965 348.642 223.321C349.342 222.902 349.931 222.318 350.356 221.618C350.781 220.919 351.03 220.125 351.082 219.306C351.306 216.828 350.486 213.591 347.932 212.83Z" fill="#121212"/>
<path d="M386.959 209.869C388.438 209.608 389.743 208.761 391.16 208.261C393.154 207.557 395.315 207.557 397.428 207.565C398.205 207.494 398.986 207.651 399.675 208.019C400.606 208.643 400.845 209.893 401.003 211.008L401.958 217.738C402.213 218.994 402.239 220.286 402.036 221.551C401.755 222.798 400.912 224.001 399.684 224.322C398.192 224.713 396.73 223.753 395.322 223.122C391.802 221.546 387.711 221.949 384.041 220.77C383.69 220.699 383.358 220.554 383.067 220.345C382.776 220.135 382.532 219.865 382.352 219.554C382.227 219.18 382.182 218.783 382.221 218.391C382.284 216.227 381.831 213.273 382.477 211.206C383.059 209.347 385.309 209.869 386.959 209.869Z" fill="#121212"/>
<path d="M411.097 177.532C413.376 176.956 415.739 176.793 418.074 177.052C419.939 177.259 421.861 177.782 423.223 179.083C424.881 180.667 425.413 183.116 425.458 185.417C425.531 190.001 424.022 194.468 421.19 198.056C420.498 198.963 419.676 199.761 418.75 200.423C417.751 201.053 416.686 201.57 415.575 201.965L390.931 211.761C384.447 214.338 377.941 216.923 371.179 218.622C370.994 218.712 370.793 218.763 370.588 218.774C370.383 218.784 370.178 218.754 369.985 218.683C369.792 218.612 369.614 218.504 369.464 218.363C369.313 218.223 369.192 218.053 369.107 217.865C366.948 214.757 365.136 211.417 363.706 207.907C363.638 207.824 363.591 207.725 363.569 207.62C363.547 207.514 363.551 207.405 363.58 207.301C363.609 207.198 363.662 207.102 363.735 207.024C363.808 206.945 363.899 206.885 364 206.849L381.431 196.756C382.709 196.084 383.901 195.257 384.979 194.293C385.732 193.557 386.349 192.691 386.8 191.737C387.162 190.976 387.195 189.182 387.657 188.619C388.109 188.069 389.655 188.025 390.369 187.809C391.375 187.498 392.361 187.122 393.32 186.684C397.22 184.926 400.692 182.372 404.43 180.313C406.526 179.105 408.767 178.171 411.097 177.532Z" fill="#121212"/>
<path opacity="0.1" d="M401.215 185.07C398.22 187.336 394.343 189.42 391.375 191.747C390.362 192.541 373.475 202.108 373.236 203.379C376.005 203.849 393.645 191.413 396.168 190.172C398.692 188.931 400.929 187.181 403.146 185.444C403.711 185.002 406.105 183.671 404.483 183.176C403.57 182.898 401.89 184.616 401.215 185.07Z" fill="black"/>
<path d="M380.609 111.204H354.321C353.253 111.204 352.229 111.632 351.473 112.393C350.718 113.154 350.294 114.186 350.294 115.262V116.749H350.008V120.072H350.294V122.399H350.008V124.393H350.294V148.916C350.294 149.992 350.718 151.024 351.473 151.785C352.229 152.546 353.253 152.974 354.321 152.974H380.609C381.677 152.974 382.701 152.546 383.456 151.785C384.212 151.024 384.636 149.992 384.636 148.916V115.262C384.636 114.186 384.212 113.154 383.456 112.393C382.701 111.632 381.677 111.204 380.609 111.204Z" fill="#D0CDE1"/>
<path d="M384.787 79.857L371.454 72.8184L353.041 75.6979L349.232 92.6542L358.715 92.2862L361.364 86.0569V92.184L365.74 92.0144L368.279 82.0962L369.867 92.6542L385.422 92.334L384.787 79.857Z" fill="#121212"/>
<path d="M339.499 175.336C340.102 176.369 340.959 177.229 341.987 177.831C342.662 178.142 343.398 178.293 344.14 178.273C344.881 178.253 345.608 178.062 346.266 177.716C347.578 177.006 348.653 175.921 349.353 174.596C350.802 172.017 351.102 168.931 350.921 165.974C350.741 163.016 350.114 160.103 349.837 157.153C349.635 155.008 349.619 152.851 349.602 150.696C349.552 150.243 349.647 149.786 349.872 149.391C350.259 149.002 350.76 148.75 351.301 148.671C354.225 147.796 356.167 145.033 357.558 142.297C358.488 140.47 359.296 138.473 359.116 136.428C358.937 134.383 357.479 132.323 355.452 132.114C353.781 131.942 352.239 133.011 351.033 134.19C347.993 137.182 346.039 141.118 345.485 145.364C345.221 147.443 345.297 149.579 344.735 151.598C343.537 155.908 339.788 158.551 337.92 162.429C335.861 166.703 336.997 171.555 339.499 175.336Z" fill="#A0616A"/>
<path d="M394.67 158.869C394.243 159.869 393.623 160.772 392.844 161.526C392.066 162.28 391.145 162.869 390.137 163.258C388.884 163.766 387.502 163.851 386.197 163.502C385.549 163.321 384.952 162.992 384.452 162.54C383.951 162.089 383.56 161.528 383.31 160.9C383.11 160.267 383.001 159.609 382.985 158.945C382.797 156.038 382.87 153.043 383.918 150.329C384.322 149.282 384.866 148.289 385.185 147.212C385.499 145.969 385.659 144.691 385.663 143.408L386.007 135.478C386.064 134.902 386.025 134.321 385.89 133.758C385.547 132.611 384.483 131.865 383.506 131.181C381.148 129.528 378.817 127.599 377.675 124.943C377.282 124.144 377.142 123.242 377.272 122.36C377.594 120.785 379.171 119.766 380.73 119.422C381.75 119.197 382.804 119.183 383.83 119.38C384.855 119.577 385.83 119.981 386.697 120.568C387.563 121.155 388.303 121.912 388.871 122.795C389.439 123.678 389.824 124.667 390.003 125.704C390.157 126.599 390.155 127.513 390.245 128.417C390.437 130.334 391.041 132.182 391.418 134.071C392.349 138.724 391.867 143.533 392.787 148.185C393.557 152.075 396.458 154.613 394.67 158.869Z" fill="#A0616A"/>
<path d="M367.817 129.046C369.638 129.046 371.115 127.558 371.115 125.722C371.115 123.886 369.638 122.398 367.817 122.398C365.996 122.398 364.519 123.886 364.519 125.722C364.519 127.558 365.996 129.046 367.817 129.046Z" fill="white"/>
<path d="M9.72927 245.171C15.1021 245.171 19.4576 240.782 19.4576 235.367C19.4576 229.952 15.1021 225.563 9.72927 225.563C4.35648 225.563 0.000976562 229.952 0.000976562 235.367C0.000976562 240.782 4.35648 245.171 9.72927 245.171Z" fill="#121212"/>
<path d="M44.9928 264.472L40.0928 259.672L30.2534 262.752L31.1985 274.234L51.4296 273.287L45.2145 264.776L44.9928 264.472Z" fill="#FBBEBE"/>
<path d="M34.2758 264.373C42.9622 264.373 50.0038 257.277 50.0038 248.523C50.0038 239.769 42.9622 232.672 34.2758 232.672C25.5895 232.672 18.5479 239.769 18.5479 248.523C18.5479 257.277 25.5895 264.373 34.2758 264.373Z" fill="#FBBEBE"/>
<path d="M131.916 284.816C131.916 284.816 151.239 318.28 155.837 323.304C158.024 325.777 160.354 328.117 162.814 330.312C162.814 330.312 160.652 337.539 157.209 337.281C155.247 337.162 153.322 336.684 151.53 335.87C151.53 335.87 149.993 331.856 147.312 330.095C144.632 328.335 122.732 306.622 123.244 299.682C123.756 292.743 131.916 284.816 131.916 284.816Z" fill="#121212"/>
<path d="M63.1045 332.571C63.1045 332.571 83.7062 348.686 111.705 333.544L114.118 331.754C114.118 331.754 110.046 340.986 109.668 343.488C109.23 346.391 98.6284 363.39 96.8984 364.205C95.1685 365.019 94.7872 365.77 94.7872 365.77L102.129 373.914L104.843 371.901C104.843 371.901 115.428 356.788 118.523 354.024C121.619 351.259 136.369 322.749 136.369 322.749C136.369 322.749 142.008 312.006 127.934 311.198C113.86 310.39 107.384 314.256 107.384 314.256L82.4073 318.255L63.1045 332.571Z" fill="#121212"/>
<path d="M163.053 328.729L173.474 335.996C173.474 335.996 186.768 340.193 178.579 342.986C170.39 345.78 148.81 346.79 148.32 342.936C147.831 339.082 149.171 333.016 150.248 333.348C151.325 333.68 158.797 335.635 163.053 328.729Z" fill="#121212"/>
<path d="M105.765 369.405L107.694 380.078C107.694 380.078 113.178 390.649 106.593 387.369C100.009 384.089 86.4426 371.631 88.4459 369.02C90.4492 366.408 94.8706 363.576 95.3197 364.427C95.7687 365.278 99.092 370.976 105.765 369.405Z" fill="#121212"/>
<path d="M85.8957 321.759C85.8957 321.759 71.8912 338.237 63.3888 334.234C54.8864 330.232 20.1016 283.87 24.0734 275.301C28.0453 266.733 29.377 268.556 29.377 268.556L47.3375 270.23L42.1698 261.88C42.1698 261.88 44.5827 260.091 46.8819 262.602C49.1811 265.114 58.4121 271.388 61.6278 280.249C64.8436 289.11 74.2847 288.668 74.2847 288.668L85.8957 321.759Z" fill="black"/>
<path d="M142.45 287.781L118.174 313.751L96.4272 275.057L117.101 249.884L142.45 287.781Z" fill="#FF6554"/>
<path d="M140.618 287.5L118.692 310.322L98.8232 275.154L117.045 252.035L140.618 287.5Z" fill="black"/>
<path d="M116.984 312.759L118.174 313.751L117.411 315.253L83.4655 325.435L83.1445 324.263L84.6889 322.654L116.984 312.759Z" fill="#B3B3B3"/>
<path d="M118.476 313.527L83.3241 324.604L61.896 283.798L96.4275 275.057L118.476 313.527Z" fill="#D0CDE1"/>
<path d="M115.829 307.993L114.321 309.111L97.583 279.823L99.3129 279.008L115.829 307.993Z" fill="#FF6554"/>
<path d="M112.369 309.622L97.499 314.09L80.6187 283.97L95.3295 280.557L112.369 309.622Z" fill="#FF6554"/>
<path d="M70.4777 287.274L73.5564 286.396C73.5564 286.396 90.7257 284.44 90.9764 289.877C91.227 295.314 71.2519 292.791 71.2519 292.791L68.5884 289.144L70.4777 287.274Z" fill="#FBBEBE"/>
<path d="M85.5367 311.717L89.8218 309.944C89.8218 309.944 102.757 304.1 99.0463 300.292C95.3356 296.484 83.8916 303.097 83.8916 303.097L81.7007 305.19L85.5367 311.717Z" fill="#FBBEBE"/>
<path d="M81.7179 303.303C81.7179 303.303 88.6952 310.311 87.1075 311.957C85.5199 313.603 59.4851 335.255 53.0313 328.327C46.5775 321.399 15.1337 286.617 27.369 283.634C39.6043 280.651 42.837 287.625 42.837 287.625L58.989 315.474L81.7179 303.303Z" fill="black"/>
<path d="M60.8254 282.015L72.2868 285.932L72.0997 294.271L59.978 292.953L60.8254 282.015Z" fill="black"/>
<path opacity="0.2" d="M71.1558 307.623L58.8071 314.907L44.6982 293.039L58.3173 311.053L71.1558 307.623Z" fill="black"/>
<path d="M27.3727 262.798C37.7136 262.798 46.0965 254.35 46.0965 243.928C46.0965 233.507 37.7136 225.059 27.3727 225.059C17.0319 225.059 8.64893 233.507 8.64893 243.928C8.64893 254.35 17.0319 262.798 27.3727 262.798Z" fill="#121212"/>
<path d="M128.542 289.428L115.431 270.1L120.989 263.167L134.612 283.052L128.542 289.428Z" fill="white"/>
<path d="M128.172 297.199L108.213 267.956L109.197 266.758L129.063 296.069L128.172 297.199Z" fill="#E6E6E6"/>
<path d="M125.6 300.044L105.641 270.801L106.626 269.603L126.491 298.915L125.6 300.044Z" fill="#E6E6E6"/>
<path d="M123.409 302.137L103.45 272.894L104.434 271.696L124.3 301.008L123.409 302.137Z" fill="#E6E6E6"/>
<path d="M35.6641 231.331H41.4563C44.389 231.331 47.2015 232.505 49.2753 234.595C51.349 236.684 52.514 239.519 52.514 242.474H35.6641V231.331Z" fill="#121212"/>
<path d="M115.451 224.239L114.401 224.16C114.36 224.71 114.331 225.264 114.296 225.816L109.583 225.657L114.527 234.994L120.08 226.011L115.349 225.851C115.383 225.314 115.411 224.775 115.451 224.239Z" fill="#FF6554"/>
<path d="M143.096 148.133L143.933 148.777C145.189 147.12 146.5 145.465 147.831 143.859L147.023 143.179C145.682 144.797 144.361 146.463 143.096 148.133Z" fill="#FF6554"/>
<path d="M151.163 138.404L151.94 139.119C153.337 137.577 154.788 136.046 156.251 134.567L155.505 133.818C154.031 135.307 152.57 136.85 151.163 138.404Z" fill="#FF6554"/>
<path d="M160.043 129.429L160.756 130.211C162.284 128.797 163.861 127.401 165.445 126.06L164.767 125.248C163.172 126.598 161.583 128.005 160.043 129.429Z" fill="#FF6554"/>
<path d="M135.908 158.545L136.798 159.112C137.905 157.347 139.067 155.582 140.252 153.865L139.388 153.258C138.194 154.988 137.023 156.767 135.908 158.545Z" fill="#FF6554"/>
<path d="M169.668 121.279L170.309 122.121C171.955 120.848 173.648 119.597 175.341 118.403L174.737 117.533C173.031 118.736 171.326 119.997 169.668 121.279Z" fill="#FF6554"/>
<path d="M129.658 169.561L130.595 170.046C131.543 168.187 132.547 166.324 133.576 164.509L132.662 163.982C131.625 165.81 130.614 167.687 129.658 169.561Z" fill="#FF6554"/>
<path d="M119.501 199.434L118.481 199.17C117.961 201.206 117.479 203.283 117.049 205.342L118.079 205.561C118.506 203.517 118.984 201.456 119.501 199.434Z" fill="#FF6554"/>
<path d="M179.963 114.017L180.529 114.913C182.274 113.793 184.069 112.698 185.863 111.657L185.337 110.737C183.53 111.786 181.722 112.889 179.963 114.017Z" fill="#FF6554"/>
<path d="M116.93 211.745L115.89 211.573C115.552 213.645 115.255 215.756 115.008 217.848L116.054 217.973C116.299 215.897 116.594 213.802 116.93 211.745Z" fill="#FF6554"/>
<path d="M124.402 181.098L125.377 181.498C126.158 179.561 126.994 177.614 127.86 175.713L126.903 175.27C126.03 177.186 125.188 179.147 124.402 181.098Z" fill="#FF6554"/>
<path d="M120.184 193.068L121.191 193.378C121.798 191.376 122.458 189.361 123.153 187.39L122.16 187.035C121.461 189.02 120.796 191.05 120.184 193.068Z" fill="#FF6554"/>
<path d="M251.202 92.8633C253.267 92.7913 255.369 92.7625 257.448 92.7822L257.457 91.7209C255.364 91.7012 253.245 91.7299 251.166 91.8025L251.202 92.8633Z" fill="#FF6554"/>
<path d="M190.849 107.702L191.333 108.644C193.172 107.683 195.055 106.753 196.929 105.878L196.486 104.915C194.598 105.797 192.701 106.734 190.849 107.702Z" fill="#FF6554"/>
<path d="M276.122 94.1867C278.176 94.4798 280.249 94.8228 282.284 95.2066L282.477 94.1634C280.428 93.7768 278.339 93.4309 276.269 93.1357L276.122 94.1867Z" fill="#FF6554"/>
<path d="M288.396 96.5006C290.413 96.9753 292.448 97.5029 294.444 98.0685L294.729 97.0466C292.718 96.4768 290.668 95.9456 288.636 95.4673L288.396 96.5006Z" fill="#FF6554"/>
<path d="M300.416 99.9064C302.382 100.56 304.363 101.268 306.301 102.011L306.676 101.019C304.722 100.27 302.727 99.5571 300.746 98.8984L300.416 99.9064Z" fill="#FF6554"/>
<path d="M263.691 92.9748C265.765 93.0844 267.861 93.2419 269.92 93.4425L270.022 92.3864C267.947 92.184 265.836 92.0254 263.747 91.915L263.691 92.9748Z" fill="#FF6554"/>
<path d="M238.629 92.7952L238.757 93.8488C240.81 93.5943 242.899 93.3821 244.968 93.2184L244.886 92.1602C242.801 92.3252 240.696 92.539 238.629 92.7952Z" fill="#FF6554"/>
<path d="M214.061 98.1049L214.373 99.1186C216.352 98.5011 218.371 97.9202 220.376 97.3918L220.109 96.3652C218.09 96.8972 216.055 97.4825 214.061 98.1049Z" fill="#FF6554"/>
<path d="M202.239 102.384L202.639 103.366C204.553 102.574 206.509 101.816 208.452 101.113L208.096 100.114C206.138 100.823 204.168 101.587 202.239 102.384Z" fill="#FF6554"/>
<path d="M226.228 94.8986L226.449 95.9366C228.472 95.4995 230.535 95.1018 232.58 94.7548L232.405 93.708C230.345 94.0578 228.266 94.4584 226.228 94.8986Z" fill="#FF6554"/>
<path d="M322.014 108.573L316.129 99.8081L314.06 104.101C313.559 103.875 313.061 103.645 312.561 103.427L312.142 104.401C312.631 104.614 313.114 104.838 313.6 105.056L311.54 109.328L322.014 108.573Z" fill="#FF6554"/>
</g>
<defs>
<clipPath id="clip0_92_2">
<rect width="476.801" height="388" fill="white"/>
</clipPath>
</defs>
</svg>
