<svg width="49" height="47" viewBox="0 0 49 47" fill="none" xmlns="http://www.w3.org/2000/svg">
<g clip-path="url(#clip0_72_53)">
<path d="M38.1504 35.8566L31.8146 33.3734C31.2279 33.101 30.6694 32.3513 30.6547 32.1207V30.112C30.6547 29.9825 30.6694 29.8529 30.6712 29.7846C31.7573 28.4267 35.3009 23.6401 35.3009 19.0467C35.3009 12.7002 31.0997 8.43555 24.8466 8.43555C18.5937 8.43555 14.3925 12.7002 14.3925 19.0467C14.3925 23.6395 17.9356 28.426 18.9945 29.7282C19.0237 29.8536 19.0386 29.9825 19.0386 30.1121L19.0388 32.1089C19.0241 32.3486 18.4659 33.1011 17.8873 33.3693L11.5369 35.8593C9.5794 36.7219 8.17057 38.4483 7.76981 40.4695L7.01416 43.3812L24.8465 46.5171L42.6792 43.3812L41.9251 40.4765C41.5218 38.4476 40.113 36.7219 38.1504 35.8566ZM22.9541 36.4892C22.9541 36.9357 23.2291 37.3398 23.6495 37.5266V42.4246L18.8986 36.538L19.2934 36.3819C20.8259 35.7068 22.4801 33.8856 22.4801 32.1208V30.1121C22.4801 29.5485 22.3829 28.9925 22.1912 28.4588L22.0752 28.1634L21.9019 27.9579C21.8612 27.909 17.834 23.0571 17.834 19.0467C17.834 13.6562 21.4565 11.736 24.8466 11.736C28.2368 11.736 31.8594 13.6562 31.8594 19.0467C31.8594 23.0258 27.9588 27.7572 27.7931 27.9565L27.5935 28.2053L27.5028 28.4561C27.3105 28.9898 27.2131 29.5472 27.2131 30.1122V32.1208C27.2131 33.8856 28.8674 35.7069 30.4059 36.3848L30.795 36.5374L26.043 42.4254C26.043 42.4254 26.043 37.5274 26.043 37.5267C26.4633 37.3399 26.7382 36.9358 26.7382 36.4893C26.7382 35.8559 26.2014 35.3411 25.5415 35.3411H24.1509C23.491 35.3409 22.9541 35.8559 22.9541 36.4892Z" fill="black"/>
<path d="M22.521 13.3154C22.3602 13.3154 22.2055 13.351 22.0615 13.4206C21.5205 13.6819 20.8408 14.1515 20.5549 14.6872C20.4304 14.9199 20.4076 15.1867 20.4902 15.437C20.5732 15.6884 20.7529 15.8933 20.9958 16.0118C21.1416 16.0835 21.3039 16.1219 21.4648 16.1219C21.8474 16.1219 22.1934 15.9191 22.3612 15.6042C22.3944 15.5541 22.6115 15.3499 22.9806 15.1716C23.4839 14.9284 23.6872 14.3376 23.4338 13.8548C23.2593 13.5217 22.9095 13.3154 22.521 13.3154Z" fill="black"/>
<path d="M21.3273 19.0467C21.3273 18.5061 20.8688 18.0664 20.3052 18.0664C19.7417 18.0664 19.2832 18.5061 19.2832 19.0467C19.2832 20.2673 19.7485 21.7709 20.6669 23.5168C20.8418 23.8499 21.1918 24.0568 21.5802 24.0568C21.7387 24.0568 21.8976 24.0199 22.0396 23.9509C22.5426 23.7077 22.7457 23.117 22.4922 22.6348C21.7302 21.1856 21.3273 19.9447 21.3273 19.0467Z" fill="black"/>
<path d="M24.8462 5.5818C25.5061 5.5818 26.043 5.06694 26.043 4.43434V1.71639C26.043 1.0837 25.5061 0.568848 24.8462 0.568848C24.1862 0.568848 23.6494 1.0837 23.6494 1.71639V4.43434C23.6495 5.06694 24.1863 5.5818 24.8462 5.5818Z" fill="black"/>
<path d="M12.752 9.71327C12.9778 9.92991 13.2783 10.0491 13.5984 10.0491C13.9184 10.0491 14.2189 9.92991 14.4444 9.71327C14.6705 9.49663 14.7952 9.2082 14.7952 8.90164C14.7952 8.59507 14.6705 8.30664 14.4444 8.08991L12.4405 6.16834C12.2145 5.95161 11.9141 5.83252 11.5944 5.83252C11.2749 5.83252 10.9744 5.95161 10.7482 6.16834C10.5221 6.38498 10.3975 6.67341 10.3975 6.97997C10.3975 7.28653 10.5221 7.57497 10.7482 7.79161L12.752 9.71327Z" fill="black"/>
<path d="M36.9411 29.662C36.7154 29.4454 36.4149 29.3262 36.095 29.3262C35.7753 29.3262 35.4747 29.4454 35.2487 29.662C35.0226 29.8786 34.8979 30.1671 34.8979 30.4736C34.8979 30.7802 35.0226 31.0679 35.2487 31.2854L37.2525 33.2069C37.4781 33.4236 37.7786 33.5435 38.0988 33.5435C38.4183 33.5435 38.7189 33.4237 38.9449 33.2069C39.171 32.9902 39.2957 32.7018 39.2957 32.3952C39.2957 32.0886 39.171 31.8009 38.9449 31.5836L36.9411 29.662Z" fill="black"/>
<path d="M10.136 19.6876C10.136 19.0549 9.59926 18.54 8.93926 18.54H6.10495C5.44504 18.54 4.9082 19.0549 4.9082 19.6876C4.9082 20.3202 5.44504 20.835 6.10495 20.835L8.93926 20.8358C9.59926 20.8358 10.136 20.3209 10.136 19.6876Z" fill="black"/>
<path d="M43.5883 18.54H40.754C40.0941 18.54 39.5571 19.0549 39.5571 19.6876C39.5571 20.3209 40.0941 20.8358 40.754 20.8358H43.5883C44.2482 20.8358 44.7849 20.3208 44.7849 19.6876C44.7849 19.0549 44.2482 18.54 43.5883 18.54Z" fill="black"/>
<path d="M11.5939 33.5435C11.9134 33.5435 12.214 33.4237 12.44 33.2069L14.4449 31.2861C14.911 30.8381 14.9111 30.11 14.4451 29.662C14.2191 29.4454 13.9187 29.3262 13.599 29.3262C13.2795 29.3262 12.9787 29.4454 12.7523 29.662L10.7478 31.5836C10.5216 31.8002 10.397 32.0886 10.397 32.3952C10.397 32.7018 10.5214 32.9902 10.7472 33.2069C10.9734 33.4237 11.2742 33.5435 11.5939 33.5435Z" fill="black"/>
<path d="M36.0951 10.0501C36.4142 10.0501 36.7146 9.93089 36.9412 9.71425L38.9461 7.79267C39.4124 7.34468 39.4124 6.61659 38.9463 6.16931C38.7204 5.95267 38.4199 5.8335 38.1002 5.8335C37.7805 5.8335 37.4798 5.95267 37.2535 6.16931L35.249 8.09089C34.7824 8.53817 34.7822 9.26625 35.2488 9.71425C35.4751 9.93089 35.7755 10.0501 36.0951 10.0501Z" fill="black"/>
</g>
<defs>
<clipPath id="clip0_72_53">
<rect width="47.9186" height="45.9484" fill="white" transform="translate(0.887207 0.568848)"/>
</clipPath>
</defs>
</svg>
