<svg width="61" height="61" viewBox="0 0 61 61" fill="none" xmlns="http://www.w3.org/2000/svg">
<path fill-rule="evenodd" clip-rule="evenodd" d="M30.3906 45.1963C38.6749 45.1963 45.3906 38.4805 45.3906 30.1963C45.3906 21.912 38.6749 15.1963 30.3906 15.1963C22.1063 15.1963 15.3906 21.912 15.3906 30.1963C15.3906 38.4805 22.1063 45.1963 30.3906 45.1963ZM30.3906 40.1963C35.9134 40.1963 40.3906 35.719 40.3906 30.1963C40.3906 24.6734 35.9134 20.1963 30.3906 20.1963C24.8678 20.1963 20.3906 24.6734 20.3906 30.1963C20.3906 35.719 24.8678 40.1963 30.3906 40.1963Z" fill="black"/>
<path d="M45.3906 12.6963C44.0099 12.6963 42.8906 13.8156 42.8906 15.1963C42.8906 16.577 44.0099 17.6963 45.3906 17.6963C46.7714 17.6963 47.8906 16.577 47.8906 15.1963C47.8906 13.8156 46.7714 12.6963 45.3906 12.6963Z" fill="black"/>
<path fill-rule="evenodd" clip-rule="evenodd" d="M4.52552 10.8864C2.89062 14.0951 2.89062 18.2955 2.89062 26.6963L2.89062 33.6963C2.89062 42.097 2.89062 46.2975 4.52552 49.506C5.96362 52.3285 8.25832 54.6233 11.0808 56.0613C14.2894 57.6963 18.4899 57.6963 26.8906 57.6963H33.8906C42.2914 57.6963 46.4919 57.6963 49.7004 56.0613C52.5229 54.6233 54.8176 52.3285 56.2556 49.506C57.8906 46.2975 57.8906 42.097 57.8906 33.6963V26.6963C57.8906 18.2955 57.8906 14.0951 56.2556 10.8864C54.8176 8.06399 52.5229 5.76929 49.7004 4.33119C46.4919 2.69629 42.2914 2.69629 33.8906 2.69629L26.8906 2.69629C18.4899 2.69629 14.2894 2.69629 11.0808 4.33119C8.25832 5.76929 5.96362 8.06399 4.52552 10.8864ZM33.8906 7.69629L26.8906 7.69629C22.6077 7.69629 19.6962 7.70019 17.4458 7.88404C15.2537 8.06314 14.1327 8.38776 13.3507 8.78621C11.4691 9.74496 9.9393 11.2748 8.98055 13.1564C8.5821 13.9384 8.25747 15.0594 8.07837 17.2515C7.89452 19.5019 7.89062 22.4134 7.89062 26.6963L7.89062 33.6963C7.89062 37.9793 7.89452 40.8905 8.07837 43.141C8.25747 45.3333 8.5821 46.4543 8.98055 47.2363C9.9393 49.1178 11.4691 50.6475 13.3507 51.6063C14.1327 52.0048 15.2537 52.3295 17.4458 52.5085C19.6962 52.6923 22.6077 52.6963 26.8906 52.6963H33.8906C38.1736 52.6963 41.0849 52.6923 43.3354 52.5085C45.5276 52.3295 46.6486 52.0048 47.4306 51.6063C49.3121 50.6475 50.8419 49.1178 51.8006 47.2363C52.1991 46.4543 52.5239 45.3333 52.7029 43.141C52.8866 40.8905 52.8906 37.9793 52.8906 33.6963V26.6963C52.8906 22.4134 52.8866 19.5019 52.7029 17.2515C52.5239 15.0594 52.1991 13.9384 51.8006 13.1564C50.8419 11.2748 49.3121 9.74496 47.4306 8.78621C46.6486 8.38776 45.5276 8.06314 43.3354 7.88404C41.0849 7.70019 38.1736 7.69629 33.8906 7.69629Z" fill="black"/>
</svg>
