<svg width="48" height="46" viewBox="0 0 48 46" fill="none" xmlns="http://www.w3.org/2000/svg">
<path d="M40.4315 5.74365H7.48748C4.94181 5.74365 2.99512 7.6103 2.99512 10.0513V35.8973C2.99512 38.3383 4.94181 40.2049 7.48748 40.2049H40.4315C42.9772 40.2049 44.9239 38.3383 44.9239 35.8973V10.0513C44.9239 7.6103 42.9772 5.74365 40.4315 5.74365ZM18.1194 10.9128C18.2692 10.7693 18.2692 10.6257 18.4189 10.4821C19.0179 9.90772 19.9164 9.90772 20.5154 10.4821C20.6651 10.6257 20.8148 10.7693 20.8148 10.9128C20.9646 11.0564 20.9646 11.3436 20.9646 11.4872C20.9646 11.6308 20.9646 11.918 20.8148 12.0616C20.6651 12.2051 20.6651 12.3487 20.5154 12.4923C20.2159 12.7795 19.9164 12.9231 19.4671 12.9231C19.3174 12.9231 19.0179 12.9231 18.8681 12.7795C18.7184 12.6359 18.5687 12.6359 18.4189 12.4923C18.2692 12.3487 18.1194 12.2051 18.1194 12.0616C17.9697 11.918 17.9697 11.6308 17.9697 11.4872C17.9697 11.3436 17.9697 11.0564 18.1194 10.9128ZM13.6271 10.9128C13.7768 10.7693 13.7768 10.6257 13.9265 10.4821C14.0763 10.3385 14.226 10.1949 14.3758 10.1949C14.9748 9.90772 15.5737 10.0513 16.023 10.4821C16.1727 10.6257 16.3225 10.7693 16.3225 10.9128C16.4722 11.0564 16.4722 11.3436 16.4722 11.4872C16.4722 11.918 16.3225 12.2051 16.023 12.4923C15.7235 12.7795 15.424 12.9231 14.9748 12.9231C14.5255 12.9231 14.226 12.7795 13.9265 12.4923C13.6271 12.2051 13.4773 11.918 13.4773 11.4872C13.4773 11.3436 13.4773 11.0564 13.6271 10.9128ZM9.43418 10.4821L9.58392 10.3385C9.73367 10.3385 9.73367 10.1949 9.88341 10.1949C10.0332 10.0513 10.0332 10.0513 10.1829 10.0513C10.3327 10.0513 10.6321 10.0513 10.7819 10.0513C10.9316 10.0513 10.9316 10.0513 11.0814 10.1949C11.2311 10.1949 11.2311 10.3385 11.3809 10.3385L11.5306 10.4821C11.6804 10.6257 11.8301 10.7693 11.8301 10.9128C11.9799 11.0564 11.9799 11.3436 11.9799 11.4872C11.9799 11.6308 11.9799 11.918 11.8301 12.0616C11.8301 12.2051 11.6804 12.3487 11.5306 12.4923C11.2311 12.7795 10.9316 12.9231 10.4824 12.9231C10.0332 12.9231 9.73367 12.7795 9.43418 12.4923C9.13469 12.2051 8.98494 11.918 8.98494 11.4872C8.98494 11.0564 9.13469 10.7693 9.43418 10.4821ZM25.457 33.0255C25.457 33.887 24.858 34.4614 23.9595 34.4614H8.98494C8.08647 34.4614 7.48748 33.887 7.48748 33.0255V31.8768L17.8199 27.4255L25.457 32.3075V33.0255ZM25.457 28.8614L18.8681 24.5538C18.4189 24.2666 17.9697 24.2666 17.3707 24.4102L7.48748 28.7178V18.6666C7.48748 17.8051 8.08647 17.2307 8.98494 17.2307H23.9595C24.858 17.2307 25.457 17.8051 25.457 18.6666V28.8614ZM40.4315 33.0255C40.4315 33.887 39.8325 34.4614 38.9341 34.4614H29.9493C29.0508 34.4614 28.4519 33.887 28.4519 33.0255V28.7178C28.4519 27.8563 29.0508 27.2819 29.9493 27.2819H38.9341C39.8325 27.2819 40.4315 27.8563 40.4315 28.7178V33.0255ZM38.9341 25.8461H34.4417C33.5432 25.8461 32.9442 25.2717 32.9442 24.4102C32.9442 23.5486 33.5432 22.9743 34.4417 22.9743H38.9341C39.8325 22.9743 40.4315 23.5486 40.4315 24.4102C40.4315 25.2717 39.8325 25.8461 38.9341 25.8461ZM38.9341 21.5384H29.9493C29.0508 21.5384 28.4519 20.964 28.4519 20.1025C28.4519 19.241 29.0508 18.6666 29.9493 18.6666H38.9341C39.8325 18.6666 40.4315 19.241 40.4315 20.1025C40.4315 20.964 39.8325 21.5384 38.9341 21.5384Z" fill="#FF6554"/>
<path d="M14.5257 21.9693C13.9267 21.395 13.0282 21.395 12.4292 21.9693C12.2795 22.1129 12.1297 22.2565 12.1297 22.4001C11.98 22.5437 11.98 22.8309 11.98 22.9745C11.98 23.4052 12.1297 23.6924 12.4292 23.9796C12.579 24.1232 12.7287 24.2668 12.8785 24.2668C13.0282 24.2668 13.3277 24.4103 13.4774 24.4103C13.9267 24.4103 14.2262 24.2668 14.5257 23.9796C14.8251 23.6924 14.9749 23.4052 14.9749 22.9745C14.9749 22.8309 14.9749 22.5437 14.8251 22.4001C14.6754 22.2565 14.6754 22.1129 14.5257 21.9693Z" fill="#FF6554"/>
</svg>
