<svg width="61" height="60" viewBox="0 0 61 60" fill="none" xmlns="http://www.w3.org/2000/svg">
<path d="M56.0029 0L5.37793 0C2.78809 0 0.69043 2.09766 0.69043 4.6875L0.69043 55.3125C0.69043 57.9023 2.78809 60 5.37793 60H56.0029C58.5928 60 60.6904 57.9023 60.6904 55.3125V4.6875C60.6904 2.09766 58.5928 0 56.0029 0ZM22.2998 42.5508H16.4521V23.8359H22.2998L22.2998 42.5508ZM19.2178 21.4922H19.1709C17.0498 21.4922 15.6787 20.0625 15.6787 18.2461C15.6787 16.3945 17.0967 15 19.2529 15C21.4092 15 22.7334 16.3945 22.7803 18.2461C22.792 20.0508 21.4209 21.4922 19.2178 21.4922ZM45.6904 42.5508H39.0576V32.8711C39.0576 30.3398 38.0264 28.6055 35.7412 28.6055C33.9951 28.6055 33.0225 29.7773 32.5771 30.9023C32.4131 31.3008 32.4365 31.8633 32.4365 32.4375V42.5508H25.8623C25.8623 42.5508 25.9443 25.3945 25.8623 23.8359H32.4365V26.7773C32.8232 25.4883 34.9209 23.6602 38.2725 23.6602C42.4326 23.6602 45.6904 26.3555 45.6904 32.1445V42.5508Z" fill="black"/>
</svg>
