<svg width="48" height="46" viewBox="0 0 48 46" fill="none" xmlns="http://www.w3.org/2000/svg">
<g clip-path="url(#clip0_72_34)">
<path d="M27.8294 35.915H12.7472C12.2465 35.915 11.8394 36.3054 11.8394 36.7855C11.8394 37.2657 12.2465 37.6561 12.7472 37.6561H27.8294C28.3301 37.6561 28.7372 37.2657 28.7372 36.7855C28.7372 36.3009 28.3301 35.915 27.8294 35.915Z" fill="black"/>
<path d="M42.7197 34.6138V36.3638H45.2982C44.9191 35.3452 43.9083 34.6138 42.7197 34.6138Z" fill="#E6E6E6"/>
<path d="M38.1666 30.3286V10.5538C38.1666 9.83138 37.5536 9.24805 36.8048 9.24805H3.77191C3.0185 9.24805 2.41016 9.83586 2.41016 10.5538V30.3286C2.41016 31.0511 3.02318 31.6344 3.77191 31.6344H36.8048C37.5583 31.6389 38.1666 31.0511 38.1666 30.3286ZM36.1123 28.444C36.1123 29.162 35.4993 29.7498 34.7505 29.7498H5.83091C5.08218 29.7498 4.46916 29.162 4.46916 28.444V12.4429C4.46916 11.7249 5.08218 11.1371 5.83091 11.1371H34.7505C35.4993 11.1371 36.1123 11.7249 36.1123 12.4429V28.444Z" fill="white"/>
<path d="M34.7501 11.1372H5.8305C5.08177 11.1372 4.46875 11.725 4.46875 12.443V28.4441C4.46875 29.1621 5.08177 29.7499 5.8305 29.7499H34.7501C35.4988 29.7499 36.1119 29.1621 36.1119 28.4441V12.443C36.1119 11.725 35.4988 11.1372 34.7501 11.1372ZM10.262 12.5821C10.262 12.5103 10.3229 12.4564 10.3931 12.4564H13.2616C13.3365 12.4564 13.3927 12.5148 13.3927 12.5821V13.3673C13.3927 13.4391 13.3318 13.493 13.2616 13.493H10.3931C10.3182 13.493 10.262 13.4346 10.262 13.3673V12.5821ZM8.84413 12.425C9.15298 12.425 9.40099 12.6628 9.40099 12.959C9.40099 13.2551 9.15298 13.493 8.84413 13.493C8.53528 13.493 8.28726 13.2551 8.28726 12.959C8.28726 12.6628 8.53996 12.425 8.84413 12.425ZM7.0191 12.425C7.32795 12.425 7.57597 12.6628 7.57597 12.959C7.57597 13.2551 7.32795 13.493 7.0191 13.493C6.71025 13.493 6.46224 13.2551 6.46224 12.959C6.46224 12.6628 6.71025 12.425 7.0191 12.425ZM18.1237 20.5782C18.1237 23.6204 15.5406 26.0973 12.3678 26.0973C9.19509 26.0973 6.61198 23.6204 6.61198 20.5782C6.61198 17.5359 9.19509 15.059 12.3678 15.059H12.8217V20.1429H18.1237V20.5782ZM13.9074 18.8416V14.5923C16.3548 14.5923 18.3389 16.4949 18.3389 18.8416H13.9074ZM31.3902 25.523H24.8061C24.5534 25.523 24.3522 25.33 24.3522 25.0877C24.3522 24.8454 24.5534 24.6525 24.8061 24.6525H31.3902C31.6429 24.6525 31.8441 24.8454 31.8441 25.0877C31.8441 25.3256 31.6429 25.523 31.3902 25.523ZM31.3902 22.2339H24.5768C24.3241 22.2339 24.1229 22.041 24.1229 21.7987C24.1229 21.5564 24.3241 21.3634 24.5768 21.3634H31.3902C31.6429 21.3634 31.8441 21.5564 31.8441 21.7987C31.8441 22.041 31.6429 22.2339 31.3902 22.2339ZM31.3902 18.9404H21.5819C21.3292 18.9404 21.1279 18.7474 21.1279 18.5051C21.1279 18.2628 21.3292 18.0698 21.5819 18.0698H31.3949C31.6476 18.0698 31.8488 18.2628 31.8488 18.5051C31.8488 18.7474 31.6429 18.9404 31.3902 18.9404ZM31.3902 15.6513H21.5819C21.3292 15.6513 21.1279 15.4583 21.1279 15.216C21.1279 14.9737 21.3292 14.7808 21.5819 14.7808H31.3949C31.6476 14.7808 31.8488 14.9737 31.8488 15.216C31.8488 15.4583 31.6429 15.6513 31.3902 15.6513Z" fill="#E6E6E6"/>
<path d="M11.9141 15.9517C9.45267 16.1715 7.52002 18.1638 7.52002 20.5779C7.52002 23.1401 9.69601 25.2266 12.368 25.2266C14.8856 25.2266 16.9634 23.3734 17.1926 21.0132H11.9141V15.9517Z" fill="white"/>
<path d="M12.8221 15.0591H12.3681C9.19542 15.0591 6.6123 17.536 6.6123 20.5783C6.6123 23.6206 9.19542 26.0975 12.3681 26.0975C15.5409 26.0975 18.124 23.6206 18.124 20.5783V20.143H12.8221V15.0591ZM17.1928 21.018C16.9635 23.3782 14.8857 25.2314 12.3681 25.2314C9.69613 25.2314 7.52014 23.1449 7.52014 20.5828C7.52014 18.1687 9.45279 16.1764 11.9142 15.9565V21.018H17.1928Z" fill="black"/>
<path d="M13.9077 14.5923V18.8416H18.3392C18.3392 16.4948 16.3551 14.5923 13.9077 14.5923Z" fill="black"/>
<path d="M6.4624 12.9588C6.4624 13.1004 6.52107 13.2362 6.6255 13.3363C6.72994 13.4365 6.87158 13.4927 7.01927 13.4927C7.16696 13.4927 7.3086 13.4365 7.41303 13.3363C7.51746 13.2362 7.57613 13.1004 7.57613 12.9588C7.57613 12.8172 7.51746 12.6813 7.41303 12.5812C7.3086 12.4811 7.16696 12.4248 7.01927 12.4248C6.87158 12.4248 6.72994 12.4811 6.6255 12.5812C6.52107 12.6813 6.4624 12.8172 6.4624 12.9588Z" fill="white"/>
<path d="M8.2876 12.9588C8.2876 13.1004 8.34627 13.2362 8.4507 13.3363C8.55513 13.4365 8.69677 13.4927 8.84446 13.4927C8.99215 13.4927 9.13379 13.4365 9.23823 13.3363C9.34266 13.2362 9.40133 13.1004 9.40133 12.9588C9.40133 12.8172 9.34266 12.6813 9.23823 12.5812C9.13379 12.4811 8.99215 12.4248 8.84446 12.4248C8.69677 12.4248 8.55513 12.4811 8.4507 12.5812C8.34627 12.6813 8.2876 12.8172 8.2876 12.9588Z" fill="white"/>
<path d="M10.3932 13.4931H13.2618C13.3367 13.4931 13.3928 13.4347 13.3928 13.3674V12.5822C13.3928 12.5104 13.332 12.4565 13.2618 12.4565H10.3932C10.3184 12.4565 10.2622 12.5149 10.2622 12.5822V13.3674C10.2622 13.4392 10.323 13.4931 10.3932 13.4931Z" fill="white"/>
<path d="M42.7195 32.8682C40.5202 32.8682 38.6811 34.3714 38.2599 36.3592H32.8457C32.2982 36.3592 31.9004 36.256 31.76 36.0765C31.6664 35.9553 31.6664 35.7624 31.6664 35.6726V33.3797H36.8093C38.5641 33.3797 39.9867 32.0111 39.9867 30.3329V10.5536C39.9867 8.87093 38.5594 7.50684 36.8093 7.50684H3.77165C2.01682 7.50684 0.594238 8.87541 0.594238 10.5536V30.3285C0.594238 32.0111 2.0215 33.3752 3.77165 33.3752H29.8461V35.6726C29.8461 35.888 29.8461 36.5387 30.3094 37.1265C30.8194 37.7726 31.6711 38.1002 32.8457 38.1002H47.2681V37.2297C47.2681 34.8246 45.2278 32.8682 42.7195 32.8682ZM3.77165 31.6387C3.01824 31.6387 2.4099 31.0509 2.4099 30.3329V10.5536C2.4099 9.83118 3.02292 9.24785 3.77165 9.24785H36.8046C37.558 9.24785 38.1663 9.83566 38.1663 10.5536V30.3285C38.1663 31.0509 37.5533 31.6342 36.8046 31.6342H3.77165V31.6387ZM42.7195 36.3592H40.1411C40.5155 35.3406 41.5309 34.6092 42.7195 34.6092C43.9081 34.6092 44.9236 35.3406 45.298 36.3592H42.7195Z" fill="black"/>
<path d="M31.3902 14.7808H21.5818C21.3292 14.7808 21.1279 14.9737 21.1279 15.216C21.1279 15.4583 21.3292 15.6513 21.5818 15.6513H31.3949C31.6476 15.6513 31.8488 15.4583 31.8488 15.216C31.8488 14.9737 31.6429 14.7808 31.3902 14.7808Z" fill="black"/>
<path d="M31.3902 18.0698H21.5818C21.3292 18.0698 21.1279 18.2628 21.1279 18.5051C21.1279 18.7474 21.3292 18.9403 21.5818 18.9403H31.3949C31.6476 18.9403 31.8488 18.7474 31.8488 18.5051C31.8488 18.2628 31.6429 18.0698 31.3902 18.0698ZM31.3902 21.3634H24.5768C24.3241 21.3634 24.1228 21.5563 24.1228 21.7986C24.1228 22.0409 24.3241 22.2339 24.5768 22.2339H31.3902C31.6429 22.2339 31.8441 22.0409 31.8441 21.7986C31.8441 21.5563 31.6429 21.3634 31.3902 21.3634Z" fill="#8FFF00"/>
<path d="M31.3906 24.6523H24.8065C24.5538 24.6523 24.3525 24.8453 24.3525 25.0876C24.3525 25.3299 24.5538 25.5228 24.8065 25.5228H31.3906C31.6433 25.5228 31.8445 25.3299 31.8445 25.0876C31.8445 24.8453 31.6433 24.6523 31.3906 24.6523Z" fill="black"/>
</g>
<defs>
<clipPath id="clip0_72_34">
<rect width="47.9186" height="45.9484" fill="white"/>
</clipPath>
</defs>
</svg>
