<svg width="1440" height="1542" viewBox="0 0 1440 1542" fill="none" xmlns="http://www.w3.org/2000/svg">
<path d="M819.937 546.287C974.134 614.3 1109.05 701.219 1199.83 791.032C1291.83 882.044 1327.73 965.629 1300.93 1026.39C1274.13 1087.16 1188.2 1117 1058.96 1110.43C931.417 1103.95 776.258 1062.92 622.061 994.912C467.864 926.9 332.948 839.981 242.162 750.167C150.17 659.156 114.266 575.571 141.067 514.809C167.867 454.047 253.803 424.199 383.041 430.767C510.581 437.25 665.74 478.275 819.937 546.287ZM626.281 985.342C779.34 1052.85 933.188 1093.57 1059.48 1099.99C1184.09 1106.32 1266.43 1078.68 1291.36 1022.17C1316.28 965.659 1281.17 886.211 1192.48 798.467C1102.58 709.527 968.775 623.367 815.716 555.857C662.657 488.347 508.809 447.632 382.513 441.214C257.913 434.881 175.566 462.516 150.639 519.031C125.712 575.546 160.83 654.989 249.521 742.734C339.421 831.673 473.224 917.833 626.281 985.342Z" fill="#FF5C00" fill-opacity="0.9"/>
<path d="M708.459 150.108C756.379 171.244 803.902 225.279 846.318 308.142C904.501 421.81 946.576 576.656 964.793 744.154C983.012 911.653 975.207 1071.91 942.82 1195.4C910.001 1320.54 855.557 1393.4 789.516 1400.56C723.477 1407.72 654.636 1348.24 595.681 1233.06C537.498 1119.39 495.422 964.543 477.205 797.045C458.986 629.546 466.791 469.289 499.179 345.796C531.998 220.659 586.442 147.799 652.483 140.633C671.011 138.625 689.769 141.864 708.459 150.108ZM737.472 1381.48C754.557 1389.02 771.609 1391.99 788.385 1390.17C849.808 1383.5 901.059 1313.39 932.7 1192.75C964.772 1070.46 972.475 911.546 954.393 745.283C936.309 579.021 894.62 425.467 837.005 312.906C780.164 201.857 715.034 144.365 653.613 151.034C592.19 157.697 540.939 227.807 509.299 348.451C477.226 470.741 469.523 629.653 487.605 795.916C505.689 962.178 547.378 1115.73 604.994 1228.29C646.308 1309.01 692.004 1361.43 737.472 1381.48Z" fill="#FF5C00" fill-opacity="0.9"/>
<path d="M1187.68 361.477C1206.37 369.723 1221.4 381.385 1232.41 396.426C1271.65 450.027 1254.56 539.361 1184.28 647.973C1114.92 755.16 1001.83 868.981 865.855 968.468C729.878 1067.95 587.157 1141.29 463.984 1174.97C339.172 1209.1 248.822 1198.37 209.585 1144.77C170.346 1091.17 187.441 1001.84 257.723 893.225C327.081 786.039 440.165 672.218 576.144 572.732C712.121 473.244 854.842 399.906 978.015 366.23C1067.8 341.68 1139.76 340.341 1187.68 361.477ZM258.768 1170.34C304.237 1190.39 373.75 1188.8 461.223 1164.88C583.195 1131.53 724.701 1058.78 859.676 960.027C994.65 861.272 1106.81 748.433 1175.49 642.29C1243.25 537.577 1260.47 452.455 1223.97 402.604C1214.01 388.99 1200.31 378.394 1183.23 370.858C1137.76 350.799 1068.25 352.402 980.777 376.32C858.804 409.669 717.297 482.421 582.323 581.173C447.348 679.927 335.19 792.767 266.508 898.908C198.748 1003.62 181.531 1088.74 218.027 1138.6C227.993 1152.21 241.688 1162.81 258.768 1170.34Z" fill="#FF5C00" fill-opacity="0.9"/>
<path d="M768.26 663.449C709.063 637.339 639.914 664.145 613.813 723.323C587.711 782.501 614.541 851.64 673.738 877.75C732.935 903.861 802.084 877.054 828.185 817.877C854.287 758.699 827.458 689.56 768.26 663.449Z" fill="#FF5C00" fill-opacity="0.9"/>
</svg>
