<svg width="94" height="94" viewBox="0 0 94 94" fill="none" xmlns="http://www.w3.org/2000/svg">
<g clip-path="url(#clip0_77_332)">
<path d="M77.7977 0.668945H15.8543C7.30885 0.697982 0.398177 7.61156 0.369141 16.1541V78.0975C0.369141 86.611 7.34079 93.5827 15.8543 93.5827H77.7977C86.3112 93.5827 93.2829 86.611 93.2829 78.0975V16.1541C93.2829 7.6406 86.3112 0.668945 77.7977 0.668945ZM69.3278 65.9255C68.5554 67.7867 67.3301 69.4331 65.7592 70.7049C64.1245 72.0202 62.0687 73.1091 59.528 73.8814C57.0018 74.6683 53.9937 75.0603 50.5006 75.0603H25.6076V20.858H51.9379C56.8073 20.858 60.7098 21.9469 63.6279 24.1856C66.578 26.4243 68.0299 29.7809 68.0299 34.2873C68.0299 37.0255 67.3649 39.3542 66.0322 41.288C64.6994 43.2219 62.7801 44.7201 60.3004 45.7654V45.9484C63.6134 46.6453 66.1686 48.2161 67.8469 50.6523C69.5252 53.0884 70.4021 56.1721 70.4021 59.8917C70.4021 61.9794 69.9927 63.9597 69.2378 65.8035L69.3278 65.908V65.9255ZM58.5756 52.5716C57.0018 51.1198 54.7631 50.4084 51.8914 50.4084H35.149V67.3163H51.935C54.7922 67.3163 57.0454 66.5759 58.6337 65.0776C60.222 63.5793 61.0234 61.448 61.0234 58.7244C60.9943 56.0473 60.222 53.977 58.6337 52.5687H58.5582L58.5756 52.5716ZM56.2614 41.6365C57.7887 40.3356 58.5437 38.4744 58.5437 36.0411C58.5437 33.3175 57.8642 31.3837 56.4879 30.2803C55.1261 29.1769 53.1603 28.602 50.5761 28.602H35.0909V43.5587H50.5761C52.8293 43.5587 54.766 42.8937 56.2469 41.6394L56.2614 41.6365Z" fill="white"/>
</g>
<defs>
<clipPath id="clip0_77_332">
<rect width="92.9166" height="92.9166" fill="white" transform="translate(0.365723 0.668945)"/>
</clipPath>
</defs>
</svg>
