<svg width="94" height="94" viewBox="0 0 94 94" fill="none" xmlns="http://www.w3.org/2000/svg">
<g clip-path="url(#clip0_77_326)">
<path d="M88.6158 0.759766L80.8866 84.478L47.3996 93.4945L13.9121 84.478L6.18457 0.759766H88.6158ZM73.0412 17.7826H47.3695H21.2431L22.4925 27.8923H47.3695H48.7669L47.3695 28.474L23.4017 38.4563L24.1966 48.3383L47.3695 48.4135L59.7895 48.4528L58.9944 61.6292L47.3693 64.9022V64.8918L47.274 64.9183L36.0471 62.0842L35.3658 53.905H35.3286H24.9151H24.8784L26.2415 69.6948L47.3697 75.9429V75.9317L47.4078 75.9429L68.4227 69.8086L71.1487 38.4563H47.3697H47.3111L47.3697 38.4309L72.0198 27.8923L73.0412 17.7826Z" fill="white"/>
</g>
<defs>
<clipPath id="clip0_77_326">
<rect width="92.9166" height="92.9166" fill="white" transform="translate(0.941895 0.668945)"/>
</clipPath>
</defs>
</svg>
