<svg width="92" height="54" viewBox="0 0 92 54" fill="none" xmlns="http://www.w3.org/2000/svg">
<path d="M91.6172 52.4714C90.298 52.9829 88.8419 52.9818 87.5235 52.4683C86.2051 51.9548 85.1157 50.9644 84.4606 49.6839L71.4316 31.2129L69.5434 28.6306L54.4259 49.7072C53.8103 50.9339 52.7799 51.8887 51.5275 52.3932C50.275 52.8977 48.8862 52.9172 47.6206 52.4482L67.1 25.6572L48.9802 1.45634C50.2831 0.975014 51.7079 0.968634 53.0149 1.43827C54.3218 1.90791 55.431 2.82488 56.1556 4.03478L69.6604 22.7342L83.2408 4.11221C83.8612 2.90734 84.8919 1.97818 86.1368 1.50136C87.3818 1.02455 88.7542 1.03333 89.9933 1.52603L82.9614 11.0926L73.437 23.8028C73.1725 24.0447 72.9608 24.3411 72.8159 24.6727C72.671 25.0043 72.5961 25.3636 72.5961 25.7269C72.5961 26.0903 72.671 26.4496 72.8159 26.7812C72.9608 27.1128 73.1725 27.4092 73.437 27.6511L91.5794 52.4753L91.6172 52.4714ZM0.988067 25.3243L2.57421 17.2909C6.93232 1.40601 24.6971 -5.20268 36.9179 4.63099C44.0745 10.3957 45.8608 18.5569 45.5096 27.7556H5.19512C4.54178 44.1825 16.1055 54.1013 30.8906 49.0335C33.2874 48.1491 35.4328 46.6689 37.1346 44.7257C38.8363 42.7825 40.0413 40.4369 40.6416 37.899C41.4233 35.3206 42.7111 34.8792 45.0752 35.6226C44.6813 38.7677 43.5968 41.7803 41.9032 44.4338C40.2097 47.0873 37.9513 49.3126 35.2978 50.9422C30.9148 53.3999 25.8861 54.3741 20.9305 53.7253C15.9749 53.0765 11.3463 50.8381 7.70651 47.33C4.10759 43.1774 1.93249 37.9319 1.513 32.3937C1.513 31.4839 1.21088 30.6322 1.00695 29.8153C0.988566 28.3196 0.979754 26.8239 0.980514 25.3282L0.988067 25.3243ZM5.24421 24.217H41.7028C41.4762 12.3082 34.146 3.86056 24.3685 3.78313C13.4846 3.62827 5.6974 11.8901 5.21778 24.1628L5.24421 24.217Z" fill="white"/>
</svg>
