<svg width="91" height="93" viewBox="0 0 91 93" fill="none" xmlns="http://www.w3.org/2000/svg">
<path d="M53.4584 28.8475L47.0176 16.2137C46.689 15.5836 46.0517 15.1597 45.3181 15.1597C44.5845 15.1597 43.9472 15.5807 43.6243 16.2021L43.6187 16.2137L15.3372 68.1715L53.4584 28.8475ZM76.0553 73.1774L68.0906 22.3782C67.9433 21.4345 67.153 20.7202 66.2014 20.7202C65.666 20.7202 65.1845 20.9438 64.8362 21.3067L14.5781 73.1803L42.3837 89.2433C43.1938 89.7166 44.1625 89.9982 45.1935 89.9982C46.2245 89.9982 47.196 89.7195 48.0315 89.2288L48.0032 89.2433L76.0553 73.1774ZM16.6118 59.7829L24.9815 4.59044C25.126 3.63805 25.919 2.91504 26.8792 2.91504C27.61 2.91504 28.2473 3.33316 28.5702 3.95164L28.5758 3.96325L37.5772 21.2748L16.6118 59.7829Z" fill="white"/>
</svg>
