<svg width="94" height="94" viewBox="0 0 94 94" fill="none" xmlns="http://www.w3.org/2000/svg">
<g clip-path="url(#clip0_77_329)">
<path d="M20.6819 0.668945H24.8617V4.79865H28.6852V0.668945H32.8654V13.1744H28.6856V8.98662H24.862V13.1744H20.6822V0.668945H20.6819ZM38.3618 4.81608H34.6823V0.668945H46.2232V4.81608H42.542V13.1744H38.3622V4.81608H38.3618ZM48.0547 0.668945H52.4138L55.0944 5.06307L57.7728 0.668945H62.1325V13.1744H57.9697V6.9762L55.0942 11.4224H55.0225L52.145 6.9762V13.1744H48.0547V0.668945ZM64.2131 0.668945H68.394V9.04106H74.2722V13.1744H64.2131V0.668945ZM14.5693 18.8938L20.5483 85.9559L47.3787 93.4037L74.2835 85.9452L80.2688 18.8937L14.5693 18.8938ZM67.7971 34.8084L67.4227 38.9782L67.2583 40.8271H67.2313H47.4192H47.3905H35.7839L36.5356 49.2489H47.3905H47.4192H64.293H66.5095L66.3088 51.4579L64.3761 73.1118L64.2523 74.5004L47.4192 79.1661V79.1675L47.3814 79.1782L30.5332 74.5008L29.3806 61.5867H33.1862H37.6373L38.223 68.1464L47.3829 70.6203L47.3905 70.6179V70.6172L56.5644 68.1418L57.5184 57.4744H47.4192H47.3905H29.0133L26.9919 34.8084L26.7949 32.6021H47.3905H47.4192H67.994L67.7971 34.8084Z" fill="white"/>
</g>
<defs>
<clipPath id="clip0_77_329">
<rect width="92.9166" height="92.9166" fill="white" transform="translate(0.160156 0.668945)"/>
</clipPath>
</defs>
</svg>
