<svg width="91" height="94" viewBox="0 0 91 94" fill="none" xmlns="http://www.w3.org/2000/svg">
<g clip-path="url(#clip0_77_308)">
<path fill-rule="evenodd" clip-rule="evenodd" d="M45.6816 9.60302C25.3459 9.60302 8.86047 26.5031 8.86047 47.3504C8.86047 68.198 25.3459 85.0978 45.6816 85.0978C53.3477 85.0978 60.4599 82.6999 66.3536 78.593L34.352 39.0873V66.2241C34.352 68.6295 32.4498 70.5796 30.1034 70.5796C27.757 70.5796 25.8548 68.6295 25.8548 66.2241V27.0249C25.8548 25.1898 26.9769 23.5515 28.6606 22.9283C30.3442 22.3051 32.2284 22.8306 33.372 24.2423L75.7095 76.5082C77.1903 78.3363 76.9682 81.0443 75.2105 82.5931C67.2815 89.581 56.9578 93.8087 45.6816 93.8087C20.653 93.8087 0.363281 73.0087 0.363281 47.3504C0.363281 21.6922 20.653 0.89209 45.6816 0.89209C70.7104 0.89209 90.9999 21.6922 90.9999 47.3504C90.9999 51.7888 90.3915 56.0888 89.2529 60.1642C88.6978 62.1526 88.0163 64.0858 87.2187 65.9552C86.2783 68.1591 83.7734 69.1637 81.6236 68.1997C79.4738 67.2357 78.4932 64.6677 79.4341 62.4639C80.081 60.947 80.6339 59.3785 81.0843 57.7658C82.0071 54.4626 82.5027 50.9695 82.5027 47.3504C82.5027 26.5031 66.0176 9.60302 45.6816 9.60302ZM59.8436 22.6694C62.1899 22.6694 64.0922 24.6195 64.0922 27.0249V44.4468C64.0922 46.8522 62.1899 48.8022 59.8436 48.8022C57.4972 48.8022 55.595 46.8522 55.595 44.4468V27.0249C55.595 24.6195 57.4972 22.6694 59.8436 22.6694Z" fill="white"/>
</g>
<defs>
<clipPath id="clip0_77_308">
<rect width="90.6367" height="92.9166" fill="white" transform="translate(0.363281 0.89209)"/>
</clipPath>
</defs>
</svg>
