<svg width="90" height="103" viewBox="0 0 90 103" fill="none" xmlns="http://www.w3.org/2000/svg">
<path d="M34.2173 49.936H55.7733C61.7744 49.936 66.564 44.3741 66.564 37.5898V14.4554C66.564 7.87174 61.6303 2.9253 55.7733 1.82601C52.0659 1.13167 48.2191 0.815794 44.5304 0.835325C40.8404 0.854656 37.3185 1.2088 34.2173 1.82601C25.0853 3.64295 23.4273 7.44425 23.4273 14.4554V23.7151H45.0081V26.8013H23.4273H15.3284C9.05576 26.8013 3.56356 31.0452 1.8466 39.1192C-0.134659 48.3733 -0.223525 54.1476 1.8466 63.8111C3.3807 71.0031 7.04387 76.1287 13.316 76.1287H20.7364V65.0284C20.7364 57.009 26.8984 49.936 34.2173 49.936ZM32.8594 17.5418C30.6225 17.5418 28.8096 15.4781 28.8096 12.926C28.8096 10.3653 30.6225 8.28248 32.8594 8.28248C35.0888 8.28248 36.9085 10.3653 36.9085 12.926C36.9085 15.4783 35.089 17.5418 32.8594 17.5418ZM88.1454 39.1192C86.5945 32.0901 83.6341 26.8013 77.354 26.8013H69.2551V37.5898C69.2551 45.9545 62.9562 52.9935 55.7733 52.9935H34.2173C28.3137 52.9935 23.4273 58.6827 23.4273 65.3404V88.4741C23.4273 95.0581 28.5125 98.9321 34.2173 100.819C41.0485 103.081 47.5986 103.491 55.7733 100.819C61.2058 99.0499 66.564 95.485 66.564 88.4741V79.2148H45.0081V76.1285H66.564H77.354C83.6262 76.1285 85.9641 71.203 88.1454 63.8109C90.3975 56.2007 90.3014 48.8817 88.1454 39.1192ZM57.1321 85.3874C59.3697 85.3874 61.1812 87.4513 61.1812 90.0023C61.1812 92.5632 59.3697 94.6468 57.1321 94.6468C54.9025 94.6468 53.0823 92.5632 53.0823 90.0023C53.0823 87.4513 54.9025 85.3874 57.1321 85.3874Z" fill="white"/>
</svg>
