<svg width="92" height="94" viewBox="0 0 92 94" fill="none" xmlns="http://www.w3.org/2000/svg">
<path d="M84.6231 47.1274C84.6231 41.6105 78.3918 36.9647 68.4785 34.061C71.0276 23.8983 70.1779 16.0584 65.6461 13.1548C64.5131 12.5741 63.3802 12.2837 61.964 12.2837C57.7154 12.2837 52.0506 15.4777 46.3858 20.9946C40.721 15.4777 35.3394 12.2837 30.8076 12.2837C29.3914 12.2837 28.2584 12.5741 27.1255 13.1548C22.8769 16.0584 22.0272 23.8983 24.2931 34.061C14.6629 36.9647 8.14844 41.9009 8.14844 47.1274C8.14844 52.6443 14.3797 57.2902 24.2931 60.1938C22.0272 70.3566 22.8769 78.4868 27.4087 81.1001C28.5417 81.6808 29.6746 81.9711 31.0908 81.9711C35.3394 81.9711 41.0042 78.7771 46.669 73.2602C52.3338 78.7771 57.7154 81.9711 62.2472 81.9711C63.6634 81.9711 64.7963 81.6808 65.9293 81.1001C70.4611 78.4868 71.3109 70.3566 69.0449 60.1938C78.3918 57.2902 84.6231 52.354 84.6231 47.1274ZM61.964 16.0584C62.8137 16.0584 63.3801 16.0584 63.6634 16.6392C65.9293 17.8006 66.779 22.4464 65.9293 28.5441C65.6461 29.9959 65.3628 31.7381 65.0796 33.1899C61.9639 32.3188 58.8483 32.0285 55.1662 31.4477C53.1835 28.5441 51.2009 25.9308 48.9349 23.6079C54.0332 18.6717 58.8483 16.0584 61.964 16.0584ZM56.8656 53.2251C55.7327 55.2576 54.5997 57.2902 53.1835 59.0324C50.9176 59.3227 48.6517 59.3227 46.3858 59.3227C44.1199 59.3227 41.8539 59.3227 39.588 59.0324C38.4551 57.2902 37.3221 55.2576 35.9059 53.2251C34.773 51.1925 33.64 49.16 32.7903 47.1274C33.64 45.0949 34.773 43.0623 35.9059 41.0298C37.0389 38.9972 38.4551 36.9647 39.588 34.9321C41.8539 34.6417 44.1199 34.6417 46.3858 34.6417C48.6517 34.6417 50.9176 34.6417 53.1835 34.9321C54.3165 36.6743 55.7327 38.7068 56.8656 41.0298C57.9986 43.0623 59.1316 45.0949 59.9813 47.1274C59.1316 49.16 57.9986 51.1925 56.8656 53.2251ZM61.964 51.4829C62.8137 53.5154 63.3801 55.548 63.9466 57.2902C61.9639 57.8709 59.9813 58.1613 57.9986 58.4516C58.5651 57.2902 59.4148 56.1287 59.9813 54.9673C60.831 54.0962 61.3975 52.6443 61.964 51.4829ZM46.3858 68.0337C44.9696 66.5818 43.5534 64.8396 42.4204 63.0975C43.8366 63.0975 45.2528 63.0975 46.3858 63.0975C47.802 63.0975 49.2182 63.0975 50.3511 63.0975C49.2182 64.8396 47.802 66.5818 46.3858 68.0337ZM34.773 58.742C32.7903 58.4516 30.8076 58.1613 28.8249 57.5805C29.3914 55.548 30.2411 53.5154 30.8076 51.7732C31.3741 52.9347 31.9406 54.0962 32.7903 55.2576C33.64 56.4191 34.2065 57.5805 34.773 58.742ZM30.8076 42.772C29.9579 40.7394 29.3914 38.7068 28.5417 36.6743C30.5244 36.0936 32.507 35.8032 34.773 35.5128C33.9232 36.6743 33.3568 37.8358 32.507 38.9972C32.2238 40.449 31.6573 41.6105 30.8076 42.772ZM46.3858 26.2212C47.802 27.673 48.9349 29.4152 50.3511 30.867C48.9349 30.867 47.802 30.867 46.3858 30.867C44.9696 30.867 43.8366 30.867 42.4204 30.867C43.8366 29.4152 45.2528 27.673 46.3858 26.2212ZM59.9813 38.9972C59.1316 37.8358 58.5651 36.6743 57.7154 35.5128C59.9813 35.8032 61.9639 36.0936 63.9466 36.6743C63.3801 38.7068 62.5304 40.7394 61.6807 42.772C61.3975 41.6105 60.831 40.449 59.9813 38.9972ZM27.1255 28.2537C26.2758 22.1561 27.1255 17.8006 29.3914 16.3488C29.9579 16.0584 30.5244 15.7681 31.0908 15.7681C34.2065 15.7681 38.7383 18.3813 43.8366 23.3175C41.8539 25.6405 39.588 28.2537 37.6054 31.1574C34.2065 31.4477 30.8076 32.0285 27.692 32.8996C27.4087 31.4477 27.1255 29.7056 27.1255 28.2537ZM20.8942 54.9673C15.5127 52.6443 11.8306 49.4503 11.8306 47.1274C11.8306 44.5141 15.2294 41.6105 20.611 39.2876C22.0272 38.7069 23.4434 38.1261 25.1428 37.8358C25.9925 41.0298 27.1255 44.2238 28.8249 47.4178C27.4087 50.6118 26.2758 53.8058 25.4261 56.7094C23.7266 56.1287 22.3104 55.548 20.8942 54.9673ZM29.1082 77.906C26.8422 76.7446 25.9925 72.0988 26.8422 66.0011C27.1255 64.5493 27.4087 62.8071 27.692 61.0649C30.8076 61.6456 33.9232 62.2264 37.3221 62.5167C39.3048 65.4204 41.5707 68.0337 43.5534 70.3566C38.4551 75.2928 33.9232 77.906 30.8076 77.906C30.2411 78.1964 29.6746 77.906 29.1082 77.906ZM65.9293 66.0011C66.779 72.0988 65.9293 76.4542 63.6634 77.906C63.0969 78.1964 62.5304 78.4868 61.964 78.4868C58.8483 78.4868 54.3165 75.8735 49.2182 70.9373C51.4841 68.6144 53.4668 66.0011 55.4494 63.0975C58.8483 62.8071 62.2472 62.2264 65.0796 61.6456C65.3628 62.8071 65.6461 64.2589 65.9293 66.0011ZM72.1606 54.9673C70.7444 55.548 69.3282 56.1287 67.6287 56.4191C66.779 53.5154 65.6461 50.3214 64.2299 47.1274C65.6461 43.9334 66.779 40.7394 67.912 37.5454C69.3282 38.1261 71.0276 38.4165 72.4438 38.9972C77.8254 41.3201 81.2242 44.2238 81.2242 46.8371C80.941 49.4503 77.5421 52.6443 72.1606 54.9673Z" fill="white"/>
<path d="M46.6691 54.3864C50.6345 54.3864 53.7501 51.1924 53.7501 47.1273C53.7501 43.0622 50.6345 39.8682 46.6691 39.8682C42.7038 39.8682 39.5881 43.0622 39.5881 47.1273C39.5881 51.1924 42.7038 54.3864 46.6691 54.3864Z" fill="white"/>
</svg>
