<svg width="94" height="94" viewBox="0 0 94 94" fill="none" xmlns="http://www.w3.org/2000/svg">
<path fill-rule="evenodd" clip-rule="evenodd" d="M46.5976 24.0376C36.2722 24.0376 29.8223 29.1674 27.24 39.4308C31.1115 34.301 35.6295 32.3769 40.7903 33.6583C43.7365 34.3901 45.8426 36.5155 48.1694 38.8655C51.9674 42.6945 56.3616 47.1274 65.9552 47.1274C76.2806 47.1274 82.7305 41.9976 85.3128 31.7342C81.4413 36.864 76.9271 38.7881 71.7625 37.5066C68.8163 36.7749 66.7102 34.6495 64.3795 32.2994C60.5854 28.4666 56.1951 24.0376 46.5976 24.0376ZM27.24 47.1274C16.9146 47.1274 10.4646 52.2572 7.88232 62.5206C11.7538 57.3869 16.2719 55.4666 21.4327 56.7481C24.3789 57.4798 26.485 59.6053 28.8157 61.9553C32.6098 65.7843 37.0039 70.2172 46.6015 70.2172C56.9268 70.2172 63.3768 65.0874 65.9591 54.824C62.0876 59.9537 57.5695 61.8779 52.4087 60.5964C49.4625 59.8647 47.3564 57.7392 45.0296 55.3892C41.2278 51.5603 36.8336 47.1274 27.24 47.1274Z" fill="white"/>
</svg>
